<svg xmlns="http://www.w3.org/2000/svg" xmlns:xlink="http://www.w3.org/1999/xlink" width="230" height="170" viewBox="0 0 230 170" fill="none"><g opacity="1"  transform="translate(0 0)"><mask id="bg-mask-0" fill="white"><use transform="translate(0 0)" xlink:href="#path_0"></use></mask><g mask="url(#bg-mask-0)" ><path id="路径 2" fill-rule="evenodd" style="fill:#FFC60A" opacity="1" d="M94.7025 50.0933C94.7608 50.0933 94.819 50.0919 94.8773 50.0891C94.9356 50.0863 94.9939 50.082 95.0521 50.0764C95.11 50.0708 95.1679 50.0637 95.2258 50.0553C95.2833 50.0468 95.3408 50.037 95.3983 50.0258C95.4554 50.0146 95.5121 50.002 95.5685 49.988C95.6252 49.974 95.6815 49.9587 95.7375 49.942C95.7931 49.9253 95.8485 49.9073 95.9037 49.888C95.9585 49.8686 96.0129 49.8479 96.067 49.8258C96.1207 49.8039 96.1739 49.7806 96.2268 49.756C96.2794 49.7314 96.3315 49.7056 96.3832 49.6785C96.4346 49.6514 96.4852 49.623 96.535 49.5935C96.5853 49.5639 96.6347 49.5332 96.6834 49.5012C96.7317 49.4693 96.7792 49.4362 96.826 49.4019C96.8731 49.3676 96.9191 49.3323 96.964 49.2958C97.0092 49.2594 97.0535 49.2218 97.0968 49.1832C97.1398 49.1446 97.1819 49.1049 97.2233 49.0643C97.2647 49.0236 97.305 48.982 97.3441 48.9394C97.3832 48.8968 97.4213 48.8533 97.4585 48.8088C97.4953 48.7644 97.5311 48.7191 97.566 48.6729C97.6009 48.6267 97.6344 48.5797 97.6666 48.5319C97.6992 48.4841 97.7305 48.4355 97.7604 48.3862C97.7903 48.3369 97.819 48.2869 97.8466 48.2362C97.8742 48.1854 97.9005 48.1341 97.9254 48.0821C97.9503 48.0301 97.9739 47.9776 97.9961 47.9245C98.0184 47.8713 98.0394 47.8177 98.0594 47.7636C98.0789 47.7094 98.0971 47.6549 98.114 47.5999C98.1308 47.5448 98.1464 47.4894 98.1606 47.4337C98.1748 47.3779 98.1876 47.3218 98.1991 47.2654C98.2106 47.209 98.2205 47.1524 98.229 47.0955C98.2374 47.0386 98.2445 46.9816 98.2503 46.9243C98.256 46.8671 98.2604 46.8098 98.2635 46.7524C98.2662 46.6949 98.2675 46.6375 98.2675 46.58C98.2675 46.5225 98.2662 46.465 98.2635 46.4076C98.2604 46.3502 98.256 46.2929 98.2503 46.2356C98.2445 46.1784 98.2374 46.1213 98.229 46.0645C98.2205 46.0076 98.2106 45.951 98.1991 45.8945C98.1876 45.8382 98.1748 45.7821 98.1606 45.7263C98.1464 45.6705 98.1308 45.6151 98.114 45.5601C98.0971 45.5051 98.0789 45.4505 98.0594 45.3964C98.0394 45.3423 98.0184 45.2886 97.9961 45.2355C97.9739 45.1824 97.9503 45.1298 97.9254 45.0778C97.9005 45.0259 97.8742 44.9745 97.8466 44.9238C97.819 44.8731 97.7903 44.8231 97.7604 44.7738C97.7305 44.7245 97.6992 44.6759 97.6666 44.6281C97.6344 44.5803 97.6009 44.5333 97.566 44.4871C97.5311 44.4409 97.4953 44.3956 97.4585 44.3512C97.4213 44.3067 97.3832 44.2632 97.3441 44.2206C97.305 44.178 97.2647 44.1363 97.2233 44.0957C97.1819 44.055 97.1398 44.0154 97.0968 43.9768C97.0535 43.9382 97.0092 43.9006 96.964 43.8641C96.9191 43.8277 96.8731 43.7923 96.826 43.758C96.7792 43.7238 96.7317 43.6907 96.6834 43.6588C96.6347 43.6268 96.5853 43.5961 96.535 43.5665C96.4852 43.5369 96.4346 43.5086 96.3832 43.4815C96.3315 43.4544 96.2794 43.4285 96.2268 43.404C96.1739 43.3794 96.1207 43.3561 96.067 43.3341C96.0129 43.3121 95.9585 43.2914 95.9037 43.272C95.8485 43.2526 95.7931 43.2346 95.7375 43.2179C95.6815 43.2013 95.6252 43.1859 95.5685 43.1719C95.5121 43.158 95.4554 43.1454 95.3983 43.1341C95.3408 43.1229 95.2833 43.1131 95.2258 43.1047C95.1679 43.0962 95.11 43.0892 95.0521 43.0836C94.9939 43.0779 94.9356 43.0737 94.8773 43.0709C94.819 43.0681 94.7608 43.0667 94.7025 43.0667C94.6442 43.0667 94.586 43.0681 94.5277 43.0709C94.4694 43.0737 94.4112 43.0779 94.3529 43.0836C94.295 43.0892 94.2371 43.0962 94.1793 43.1047C94.1218 43.1131 94.0643 43.1229 94.0068 43.1341C93.9496 43.1454 93.8929 43.158 93.8366 43.1719C93.7798 43.1859 93.7235 43.2013 93.6675 43.2179C93.6119 43.2346 93.5565 43.2526 93.5013 43.272C93.4465 43.2914 93.3921 43.3121 93.338 43.3341C93.2844 43.3561 93.2311 43.3794 93.1782 43.404C93.1257 43.4285 93.0735 43.4544 93.0218 43.4815C92.9704 43.5086 92.9198 43.5369 92.87 43.5665C92.8198 43.5961 92.7703 43.6268 92.7216 43.6588C92.6733 43.6907 92.6258 43.7238 92.579 43.758C92.5319 43.7923 92.4859 43.8277 92.441 43.8641C92.3958 43.9006 92.3515 43.9382 92.3082 43.9768C92.2653 44.0154 92.2231 44.055 92.1817 44.0957C92.1403 44.1363 92.1001 44.178 92.061 44.2206C92.0219 44.2632 91.9837 44.3067 91.9465 44.3512C91.9097 44.3956 91.8739 44.4409 91.839 44.4871C91.8041 44.5333 91.7706 44.5803 91.7384 44.6281C91.7058 44.6759 91.6746 44.7245 91.6447 44.7738C91.6148 44.8231 91.586 44.8731 91.5584 44.9238C91.5308 44.9745 91.5046 45.0259 91.4796 45.0778C91.4547 45.1298 91.4311 45.1824 91.4089 45.2355C91.3867 45.2886 91.3656 45.3423 91.3457 45.3964C91.3261 45.4505 91.3079 45.5051 91.291 45.5601C91.2742 45.6151 91.2586 45.6705 91.2445 45.7263C91.2303 45.7821 91.2174 45.8382 91.2059 45.8945C91.1944 45.951 91.1845 46.0076 91.176 46.0645C91.1676 46.1213 91.1605 46.1784 91.1548 46.2356C91.149 46.2929 91.1446 46.3502 91.1415 46.4076C91.1389 46.465 91.1375 46.5225 91.1375 46.58C91.1375 46.6375 91.1389 46.6949 91.1415 46.7524C91.1446 46.8098 91.149 46.8671 91.1548 46.9243C91.1605 46.9816 91.1676 47.0386 91.176 47.0955C91.1845 47.1524 91.1944 47.209 91.2059 47.2654C91.2174 47.3218 91.2303 47.3779 91.2445 47.4337C91.2586 47.4894 91.2742 47.5448 91.291 47.5999C91.3079 47.6549 91.3261 47.7094 91.3457 47.7636C91.3656 47.8177 91.3867 47.8713 91.4089 47.9245C91.4311 47.9776 91.4547 48.0301 91.4796 48.0821C91.5046 48.1341 91.5308 48.1854 91.5584 48.2362C91.586 48.2869 91.6148 48.3369 91.6447 48.3862C91.6746 48.4355 91.7058 48.4841 91.7384 48.5319C91.7706 48.5797 91.8041 48.6267 91.839 48.6729C91.8739 48.7191 91.9097 48.7644 91.9465 48.8088C91.9837 48.8533 92.0219 48.8968 92.061 48.9394C92.1001 48.982 92.1403 49.0236 92.1817 49.0643C92.2231 49.1049 92.2653 49.1446 92.3082 49.1832C92.3515 49.2218 92.3958 49.2594 92.441 49.2958C92.4859 49.3323 92.5319 49.3676 92.579 49.4019C92.6258 49.4362 92.6733 49.4693 92.7216 49.5012C92.7703 49.5332 92.8198 49.5639 92.87 49.5935C92.9198 49.623 92.9704 49.6514 93.0218 49.6785C93.0735 49.7056 93.1257 49.7314 93.1782 49.756C93.2311 49.7806 93.2844 49.8039 93.338 49.8258C93.3921 49.8479 93.4465 49.8686 93.5013 49.888C93.5565 49.9073 93.6119 49.9253 93.6675 49.942C93.7235 49.9587 93.7798 49.974 93.8366 49.988C93.8929 50.002 93.9496 50.0146 94.0068 50.0258C94.0643 50.037 94.1218 50.0468 94.1793 50.0553C94.2371 50.0637 94.295 50.0708 94.3529 50.0764C94.4112 50.082 94.4694 50.0863 94.5277 50.0891C94.586 50.0919 94.6442 50.0933 94.7025 50.0933Z"></path><path id="路径 3" fill-rule="evenodd" style="fill:#FFFFFF" opacity="1" d="M175.547 56.3267L162.38 91.7433L157.55 104.72L97.405 104.72L95.565 91.1766L91.5975 62.5033L94.185 47.77L170.2 47.77L175.547 56.3267Z"></path><path  id="路径 3" style="fill:#0C296E; opacity:1;" d="M175.782 56.4138L162.614 91.8304L157.784 104.807C157.748 104.905 157.654 104.97 157.55 104.97L97.405 104.97C97.28 104.97 97.1741 104.878 97.1573 104.754L95.3173 91.2103L91.3499 62.5376C91.3463 62.5118 91.3468 62.4857 91.3513 62.4601L93.9388 47.7267C93.9598 47.6072 94.0636 47.52 94.185 47.52L170.2 47.52C170.286 47.52 170.366 47.5644 170.412 47.6375L175.759 56.1942C175.801 56.2599 175.809 56.3411 175.782 56.4138ZM175.313 56.2395L175.547 56.3267L175.335 56.4591L169.988 47.9025L170.2 47.77L170.2 48.02L94.185 48.02L94.185 47.77L94.4313 47.8132L91.8438 62.5466L91.5975 62.5033L91.8452 62.4691L95.8128 91.143L97.6528 104.686L97.405 104.72L97.405 104.47L157.55 104.47L157.55 104.72L157.316 104.633L162.146 91.6562L175.313 56.2395Z"></path><path id="路径 4" fill-rule="evenodd" style="fill:#0C296E" opacity="1" d="M162.38 91.7433L157.55 104.72L97.405 104.72L95.565 91.1766L162.38 91.7433Z"></path><path id="路径 5" fill-rule="evenodd" style="fill:#FFFFFF" opacity="1" d="M154.905 56.8933L71.415 56.8933L71.415 107.1L154.905 107.1L154.905 56.8933Z"></path><path  id="路径 5" style="fill:#0C296E; opacity:1;" d="M71.165 56.8933L71.165 107.1C71.165 107.238 71.2769 107.35 71.415 107.35L154.905 107.35C155.043 107.35 155.155 107.238 155.155 107.1L155.155 56.8933C155.155 56.7553 155.043 56.6433 154.905 56.6433L71.415 56.6433C71.2769 56.6433 71.165 56.7553 71.165 56.8933ZM71.665 57.1433L154.655 57.1433L154.655 106.85L71.665 106.85L71.665 57.1433Z"></path><path id="路径 6" fill-rule="evenodd" style="fill:#A9DDF9" opacity="1" d="M111.378 68.9072L75.095 68.9072L75.095 73.5539L111.378 73.5539L111.378 68.9072ZM111.378 79.6172L75.095 79.6172L75.095 84.2639L111.378 84.2639L111.378 79.6172ZM96.715 90.3267L75.095 90.3267L75.095 94.9733L96.715 94.9733L96.715 90.3267Z"></path><path id="路径 7" fill-rule="evenodd" style="fill:#FFC60A" opacity="1" d="M148.292 99.5072L117.185 99.5072C115.575 99.5072 114.195 98.2039 114.195 96.5605L114.195 65.9039C114.195 64.3172 115.518 62.9572 117.185 62.9572L148.292 62.9572C149.902 62.9572 151.282 64.2605 151.282 65.9039L151.282 96.5605C151.282 98.2039 149.96 99.5072 148.292 99.5072Z"></path><path id="路径 8" fill-rule="evenodd" style="fill:#FFFFFF" opacity="1" d="M132.767 81.2039C136.578 81.2039 139.667 78.1592 139.667 74.4039C139.667 70.648 136.578 67.6039 132.767 67.6039C128.957 67.6039 125.867 70.648 125.867 74.4039C125.867 78.1592 128.957 81.2039 132.767 81.2039ZM146.05 94.2372L119.485 94.2372C119.485 87.8905 125.465 82.7339 132.767 82.7339C140.07 82.7339 146.05 87.8905 146.05 94.2372Z"></path><path  id="路径 9" style="fill:#0C296E; opacity:1;" d="M155.119 61.6901M155.119 61.6901Q163.876 63.1435 165.036 67.3671Q166.769 73.6284 152.157 82.2545Q137.682 90.7997 115.526 96.8013Q93.3799 102.8 76.5094 102.696Q59.4963 102.592 57.7194 96.2878Q55.9586 90.041 70.5977 81.3848Q70.6405 81.3595 70.6898 81.3525Q70.739 81.3455 70.7872 81.3579Q70.8353 81.3702 70.8751 81.4001Q70.9149 81.4299 70.9402 81.4728Q70.9655 81.5156 70.9725 81.5648Q70.9795 81.614 70.9671 81.6622Q70.9548 81.7103 70.9249 81.7501Q70.895 81.7899 70.8522 81.8152Q56.5443 90.2756 58.2006 96.1522Q59.8755 102.094 76.5125 102.196Q93.315 102.299 115.395 96.3187Q137.486 90.3349 151.903 81.8239Q166.185 73.3926 164.554 67.4996Q163.478 63.5844 155.037 62.1833Q154.988 62.1752 154.945 62.1489Q154.903 62.1226 154.874 62.0821Q154.845 62.0417 154.834 61.9932Q154.823 61.9448 154.831 61.8957Q154.839 61.8467 154.865 61.8045Q154.892 61.7623 154.932 61.7333Q154.973 61.7044 155.021 61.6932Q155.07 61.6819 155.119 61.6901Z"></path><path  id="路径 10" style="fill:#0C296E; opacity:1;" d="M156.143 59.4219M156.143 59.4219Q156.38 59.4511 156.848 59.5375Q157.3 59.6211 157.523 59.6485Q157.572 59.6546 157.616 59.6791Q157.659 59.7036 157.689 59.7428Q157.72 59.782 157.733 59.8299Q157.747 59.8779 157.741 59.9272Q157.734 59.9766 157.71 60.0198Q157.685 60.0631 157.646 60.0937Q157.607 60.1243 157.559 60.1376Q157.511 60.1508 157.462 60.1448Q157.224 60.1155 156.757 60.0292Q156.304 59.9455 156.082 59.9181Q156.033 59.912 155.989 59.8875Q155.946 59.863 155.915 59.8238Q155.885 59.7846 155.871 59.7367Q155.858 59.6888 155.864 59.6394Q155.87 59.5901 155.895 59.5468Q155.919 59.5035 155.959 59.4729Q155.998 59.4423 156.046 59.429Q156.094 59.4158 156.143 59.4219Z"></path><path  id="路径 11" style="fill:#0C296E; opacity:1;" d="M160.214 60.3954M160.214 60.3954Q162.977 61.2864 164.502 62.656Q164.539 62.6892 164.561 62.7341Q164.582 62.7789 164.585 62.8286Q164.588 62.8783 164.571 62.9251Q164.555 62.972 164.521 63.0091Q164.488 63.0461 164.443 63.0675Q164.398 63.089 164.349 63.0917Q164.299 63.0943 164.252 63.0778Q164.205 63.0613 164.168 63.0281Q162.722 61.7295 160.061 60.8713Q160.014 60.856 159.976 60.8238Q159.938 60.7916 159.915 60.7473Q159.892 60.703 159.888 60.6535Q159.884 60.6039 159.9 60.5566Q159.915 60.5093 159.947 60.4714Q159.979 60.4335 160.024 60.4108Q160.068 60.3881 160.117 60.3841Q160.167 60.3801 160.214 60.3954ZM166.253 67.0386M166.253 67.0386Q165.999 69.0549 164.197 71.3562Q164.166 71.3953 164.123 71.4197Q164.079 71.4442 164.03 71.4502Q163.98 71.4562 163.933 71.4428Q163.885 71.4295 163.846 71.3988Q163.806 71.3682 163.782 71.3248Q163.758 71.2815 163.752 71.2322Q163.746 71.1828 163.759 71.1349Q163.772 71.087 163.803 71.0479Q165.52 68.8553 165.757 66.9761Q165.763 66.9267 165.788 66.8835Q165.813 66.8403 165.852 66.8098Q165.891 66.7794 165.939 66.7662Q165.987 66.7531 166.036 66.7593Q166.086 66.7655 166.129 66.7902Q166.172 66.8148 166.203 66.8541Q166.233 66.8934 166.246 66.9413Q166.259 66.9893 166.253 67.0386ZM160.89 74.7237M160.89 74.7237Q159.235 76.1393 157.114 77.5933Q157.073 77.6214 157.024 77.6317Q156.976 77.642 156.927 77.6329Q156.878 77.6237 156.836 77.5966Q156.795 77.5695 156.766 77.5285Q156.738 77.4875 156.728 77.4388Q156.718 77.3902 156.727 77.3413Q156.736 77.2924 156.763 77.2507Q156.79 77.209 156.831 77.1809Q158.93 75.742 160.565 74.3437Q160.602 74.3114 160.65 74.296Q160.697 74.2806 160.747 74.2844Q160.796 74.2883 160.84 74.3109Q160.885 74.3334 160.917 74.3712Q160.949 74.409 160.965 74.4563Q160.98 74.5035 160.976 74.5531Q160.973 74.6027 160.95 74.647Q160.927 74.6913 160.89 74.7237ZM152.999 80.1921M152.999 80.1921Q151.094 81.307 148.968 82.4133Q148.924 82.4363 148.874 82.4406Q148.825 82.4449 148.777 82.43Q148.73 82.415 148.692 82.383Q148.654 82.3511 148.631 82.3069Q148.608 82.2628 148.603 82.2133Q148.599 82.1637 148.614 82.1163Q148.629 82.0689 148.661 82.0308Q148.693 81.9927 148.737 81.9698Q150.852 80.8692 152.746 79.7606Q152.789 79.7355 152.838 79.7287Q152.887 79.7219 152.935 79.7345Q152.984 79.747 153.023 79.7771Q153.063 79.8071 153.088 79.85Q153.113 79.8929 153.12 79.9422Q153.127 79.9915 153.114 80.0396Q153.102 80.0877 153.071 80.1273Q153.041 80.1669 152.999 80.1921ZM144.662 84.5368M144.662 84.5368Q142.6 85.5024 140.402 86.441Q140.356 86.4606 140.307 86.4611Q140.257 86.4617 140.211 86.4431Q140.165 86.4246 140.129 86.3898Q140.094 86.3551 140.074 86.3093Q140.054 86.2636 140.054 86.2139Q140.053 86.1641 140.072 86.118Q140.09 86.0718 140.125 86.0363Q140.16 86.0008 140.206 85.9812Q142.395 85.0459 144.45 84.084Q144.495 84.0629 144.544 84.0606Q144.594 84.0584 144.641 84.0753Q144.688 84.0922 144.724 84.1258Q144.761 84.1593 144.782 84.2044Q144.803 84.2494 144.806 84.2991Q144.808 84.3487 144.791 84.3955Q144.774 84.4423 144.74 84.479Q144.707 84.5157 144.662 84.5368ZM135.969 88.2525M135.969 88.2525Q133.828 89.0894 131.604 89.89Q131.557 89.9069 131.507 89.9045Q131.457 89.9022 131.412 89.881Q131.367 89.8598 131.334 89.823Q131.3 89.7862 131.284 89.7395Q131.267 89.6927 131.269 89.643Q131.271 89.5933 131.293 89.5483Q131.314 89.5033 131.351 89.4699Q131.387 89.4364 131.434 89.4196Q133.653 88.6212 135.787 87.7868Q135.833 87.7687 135.883 87.7697Q135.932 87.7707 135.978 87.7906Q136.024 87.8105 136.058 87.8464Q136.092 87.8823 136.111 87.9286Q136.129 87.9749 136.128 88.0246Q136.127 88.0743 136.107 88.1199Q136.087 88.1654 136.051 88.1999Q136.015 88.2343 135.969 88.2525ZM127.057 91.4588M127.057 91.4588Q124.868 92.1823 122.629 92.8636Q122.582 92.8781 122.532 92.8733Q122.483 92.8684 122.439 92.845Q122.395 92.8216 122.363 92.7832Q122.332 92.7448 122.317 92.6972Q122.303 92.6496 122.308 92.6001Q122.312 92.5506 122.336 92.5068Q122.359 92.4629 122.398 92.4313Q122.436 92.3997 122.484 92.3853Q124.716 91.7059 126.9 90.984Q126.947 90.9684 126.996 90.9721Q127.046 90.9757 127.09 90.9981Q127.135 91.0204 127.167 91.0581Q127.2 91.0957 127.216 91.1429Q127.231 91.1901 127.227 91.2397Q127.224 91.2893 127.201 91.3337Q127.179 91.3782 127.141 91.4107Q127.104 91.4432 127.057 91.4588ZM118.058 94.1955M118.057 94.1958L116.619 94.5911L113.405 95.4277Q113.357 95.4402 113.307 95.4334Q113.258 95.4265 113.215 95.4014Q113.172 95.3762 113.142 95.3365Q113.112 95.2969 113.1 95.2487Q113.087 95.2006 113.094 95.1513Q113.101 95.1021 113.126 95.0592Q113.151 95.0163 113.191 94.9863Q113.231 94.9563 113.279 94.9438L116.486 94.1089L117.925 93.7136Q117.973 93.7004 118.022 93.7066Q118.072 93.7128 118.115 93.7374Q118.158 93.762 118.189 93.8012Q118.219 93.8405 118.232 93.8884Q118.245 93.9364 118.239 93.9857Q118.233 94.0351 118.209 94.0783Q118.184 94.1215 118.145 94.152Q118.105 94.1826 118.057 94.1958ZM108.814 96.5258M108.814 96.5258Q106.502 97.0499 104.217 97.5089Q104.169 97.5187 104.12 97.5091Q104.071 97.4995 104.03 97.4719Q103.988 97.4444 103.96 97.4031Q103.933 97.3618 103.923 97.3131Q103.913 97.2643 103.923 97.2155Q103.932 97.1667 103.96 97.1253Q103.987 97.0839 104.029 97.0562Q104.07 97.0285 104.119 97.0187Q106.397 96.5609 108.703 96.0382Q108.752 96.0272 108.801 96.0356Q108.85 96.044 108.892 96.0705Q108.934 96.097 108.963 96.1376Q108.991 96.1782 109.002 96.2267Q109.013 96.2752 109.005 96.3242Q108.997 96.3732 108.97 96.4153Q108.944 96.4574 108.903 96.4861Q108.862 96.5148 108.814 96.5258ZM99.5319 98.3867M99.5319 98.3867Q97.2089 98.7898 94.9465 99.1173Q94.8973 99.1244 94.8491 99.1121Q94.8009 99.0999 94.7611 99.0701Q94.7213 99.0404 94.6958 98.9976Q94.6704 98.9549 94.6633 98.9057Q94.6562 98.8565 94.6684 98.8083Q94.6807 98.7601 94.7104 98.7202Q94.7402 98.6804 94.783 98.655Q94.8257 98.6296 94.8749 98.6224Q97.1304 98.2959 99.4464 97.8941Q99.4954 97.8856 99.5439 97.8965Q99.5925 97.9074 99.6331 97.936Q99.6738 97.9647 99.7004 98.0067Q99.727 98.0487 99.7355 98.0977Q99.744 98.1467 99.7331 98.1952Q99.7222 98.2437 99.6936 98.2844Q99.6649 98.325 99.6229 98.3516Q99.5809 98.3782 99.5319 98.3867ZM90.167 99.7318M90.167 99.7318Q87.8094 99.9954 85.5648 100.165Q85.5152 100.169 85.468 100.153Q85.4207 100.138 85.383 100.105Q85.3453 100.073 85.3229 100.029Q85.3004 99.9841 85.2967 99.9346Q85.2929 99.885 85.3084 99.8377Q85.324 99.7905 85.3564 99.7528Q85.3888 99.7151 85.4332 99.6926Q85.4775 99.6702 85.5271 99.6664Q87.7629 99.4974 90.1114 99.2349Q90.1608 99.2294 90.2086 99.2432Q90.2564 99.257 90.2952 99.288Q90.3341 99.3191 90.3581 99.3626Q90.3821 99.4062 90.3876 99.4556Q90.3932 99.505 90.3793 99.5528Q90.3655 99.6005 90.3345 99.6394Q90.3035 99.6783 90.2599 99.7023Q90.2164 99.7263 90.167 99.7318ZM80.7358 100.424M80.7358 100.424Q78.2812 100.499 76.0453 100.441Q75.9956 100.44 75.9502 100.419Q75.9048 100.399 75.8705 100.363Q75.8363 100.327 75.8184 100.281Q75.8006 100.234 75.8019 100.184Q75.8032 100.135 75.8234 100.089Q75.8436 100.044 75.8797 100.01Q75.9157 99.9754 75.9621 99.9576Q76.0086 99.9397 76.0583 99.941Q78.2801 99.9986 80.7206 99.9247Q80.7704 99.9232 80.8168 99.9408Q80.8633 99.9584 80.8996 99.9925Q80.9358 100.027 80.9562 100.072Q80.9766 100.117 80.9781 100.167Q80.9796 100.217 80.962 100.263Q80.9443 100.31 80.9102 100.346Q80.8762 100.382 80.8308 100.403Q80.7855 100.423 80.7358 100.424ZM71.3501 100.147M71.3501 100.147Q68.7144 99.8705 66.5869 99.3622Q66.5385 99.3506 66.4983 99.3214Q66.458 99.2923 66.432 99.2499Q66.406 99.2075 66.3981 99.1584Q66.3903 99.1093 66.4019 99.061Q66.4134 99.0126 66.4426 98.9723Q66.4718 98.932 66.5141 98.906Q66.5565 98.88 66.6056 98.8722Q66.6547 98.8643 66.7031 98.8759Q68.7989 99.3766 71.4021 99.6493Q71.4516 99.6544 71.4953 99.6781Q71.539 99.7019 71.5703 99.7405Q71.6016 99.7791 71.6158 99.8268Q71.6299 99.8745 71.6247 99.924Q71.6195 99.9734 71.5958 100.017Q71.5721 100.061 71.5335 100.092Q71.4949 100.123 71.4472 100.138Q71.3995 100.152 71.3501 100.147ZM62.1052 97.7305M62.1052 97.7305Q59.5675 96.3331 58.8816 94.3029Q58.8657 94.2558 58.869 94.2062Q58.8723 94.1566 58.8944 94.112Q58.9164 94.0674 58.9539 94.0347Q58.9913 94.002 59.0384 93.9861Q59.0855 93.9701 59.1352 93.9735Q59.1848 93.9768 59.2293 93.9988Q59.2739 94.0209 59.3066 94.0583Q59.3394 94.0958 59.3553 94.1429Q59.979 95.9889 62.3464 97.2925Q62.3899 97.3164 62.421 97.3553Q62.452 97.3941 62.4659 97.4419Q62.4797 97.4896 62.4742 97.5391Q62.4687 97.5885 62.4448 97.632Q62.4208 97.6756 62.3819 97.7067Q62.3431 97.7377 62.2953 97.7516Q62.2476 97.7654 62.1982 97.7599Q62.1487 97.7544 62.1052 97.7305ZM59.4212 89.6299M59.4212 89.6299Q60.3512 87.828 62.3615 85.8909Q62.3973 85.8564 62.4436 85.8382Q62.4899 85.82 62.5396 85.821Q62.5893 85.8219 62.6349 85.8417Q62.6805 85.8616 62.715 85.8974Q62.7495 85.9332 62.7677 85.9795Q62.7858 86.0258 62.7849 86.0755Q62.784 86.1253 62.7641 86.1708Q62.7442 86.2164 62.7084 86.2509Q60.7576 88.1307 59.8656 89.8592Q59.8427 89.9034 59.8048 89.9355Q59.7668 89.9676 59.7194 89.9827Q59.672 89.9978 59.6225 89.9937Q59.5729 89.9895 59.5287 89.9667Q59.4845 89.9439 59.4524 89.9059Q59.4203 89.8679 59.4052 89.8205Q59.3901 89.7732 59.3943 89.7236Q59.3984 89.6741 59.4212 89.6299ZM66.0073 82.8908M66.0073 82.8908Q67.146 82.0675 68.4622 81.2198Q68.504 81.1929 68.5529 81.184Q68.6018 81.1751 68.6504 81.1857Q68.699 81.1962 68.7399 81.2245Q68.7808 81.2528 68.8077 81.2946Q68.8346 81.3364 68.8435 81.3854Q68.8524 81.4343 68.8419 81.4829Q68.8313 81.5315 68.803 81.5724Q68.7747 81.6132 68.7329 81.6402Q67.4281 82.4806 66.3002 83.296Q66.2599 83.3251 66.2115 83.3366Q66.1632 83.3481 66.1141 83.3402Q66.065 83.3323 66.0226 83.3062Q65.9803 83.2802 65.9512 83.2399Q65.922 83.1996 65.9105 83.1512Q65.899 83.1028 65.9069 83.0537Q65.9148 83.0046 65.9409 82.9623Q65.967 82.9199 66.0073 82.8908Z"></path><path  id="路径 12" style="fill:#0C296E; opacity:1;" d="M69.6248 80.5322M69.6248 80.5322Q69.8225 80.4208 70.1928 80.1963Q70.5701 79.9675 70.7748 79.8522Q70.8181 79.8278 70.8675 79.8218Q70.9169 79.8158 70.9648 79.8292Q71.0127 79.8426 71.0518 79.8733Q71.0909 79.904 71.1153 79.9473Q71.1397 79.9907 71.1457 80.04Q71.1516 80.0894 71.1383 80.1373Q71.1249 80.1852 71.0942 80.2243Q71.0635 80.2634 71.0202 80.2878Q70.8224 80.3992 70.4521 80.6238Q70.0749 80.8525 69.8702 80.9678Q69.8268 80.9922 69.7775 80.9982Q69.7281 81.0042 69.6802 80.9908Q69.6323 80.9774 69.5932 80.9467Q69.5541 80.916 69.5297 80.8727Q69.5053 80.8293 69.4993 80.78Q69.4933 80.7306 69.5067 80.6827Q69.5201 80.6348 69.5508 80.5957Q69.5815 80.5566 69.6248 80.5322Z"></path><path id="路径 13" fill-rule="evenodd" style="fill:#0C296E" opacity="1" d="M74.635 119C81.5896 119 87.2275 113.444 87.2275 106.59C87.2275 99.7362 81.5896 94.18 74.635 94.18C67.6804 94.18 62.0425 99.7362 62.0425 106.59C62.0425 113.444 67.6804 119 74.635 119Z"></path><path id="路径 14" fill-rule="evenodd" style="fill:#00D6B9" opacity="1" d="M73.6575 118.717C80.6121 118.717 86.25 113.16 86.25 106.307C86.25 99.4528 80.6121 93.8967 73.6575 93.8967C66.7029 93.8967 61.065 99.4528 61.065 106.307C61.065 113.16 66.7029 118.717 73.6575 118.717Z"></path><path  id="路径 15" style="fill:#FFFFFF; opacity:1;" d="M69.517 108.377L66.872 106.847C65.086 105.862 64.4676 103.565 65.5356 101.811L66.125 102.17L65.5251 101.829L66.125 102.17L65.5251 101.829Q66.2743 100.511 67.7824 100.114Q69.2934 99.7172 70.6162 100.499L73.9983 102.42Q74.0574 102.454 74.1088 102.498Q74.1602 102.542 74.2019 102.596Q74.2437 102.65 74.2742 102.71Q74.3047 102.771 74.3227 102.837Q74.3408 102.902 74.3457 102.97Q74.3506 103.038 74.3422 103.105Q74.3338 103.173 74.3125 103.237Q74.2911 103.302 74.2575 103.361Q74.2239 103.42 74.1795 103.471Q74.135 103.523 74.0814 103.564Q74.0278 103.606 73.9671 103.637Q73.9063 103.667 73.8408 103.685Q73.7753 103.703 73.7075 103.708Q73.6398 103.713 73.5723 103.705Q73.5049 103.696 73.4404 103.675Q73.3759 103.654 73.3168 103.62L69.9138 101.687Q69.087 101.198 68.1332 101.449Q67.187 101.698 66.7249 102.511C66.7215 102.517 66.718 102.523 66.7249 102.511C66.7215 102.517 66.718 102.523 66.7144 102.529C66.0547 103.612 66.4403 105.033 67.563 105.653L70.208 107.183Q70.2668 107.217 70.3179 107.262Q70.3689 107.306 70.4103 107.36Q70.4516 107.414 70.4816 107.475Q70.5116 107.536 70.5291 107.602Q70.5467 107.668 70.5511 107.735Q70.5554 107.803 70.5465 107.871Q70.5376 107.938 70.5157 108.002Q70.4938 108.067 70.4598 108.126Q70.4258 108.184 70.3809 108.235Q70.336 108.286 70.2821 108.328Q70.2281 108.369 70.1672 108.399Q70.1062 108.429 70.0405 108.447Q69.9749 108.464 69.9071 108.469Q69.8392 108.473 69.7719 108.464Q69.7045 108.455 69.6402 108.433Q69.5758 108.411 69.517 108.377ZM76.1717 103.773L80.1392 105.926C81.9415 106.921 82.5599 109.217 81.4919 110.972L80.9025 110.613L81.5024 110.954L80.9025 110.613L81.5024 110.954Q80.7532 112.272 79.2451 112.668Q77.7341 113.066 76.4113 112.283L76.7625 111.689L76.4304 112.294L72.4054 110.084Q72.3459 110.052 72.2938 110.008Q72.2418 109.964 72.1992 109.911Q72.1567 109.858 72.1254 109.798Q72.094 109.738 72.075 109.672Q72.056 109.607 72.0501 109.539Q72.0442 109.472 72.0516 109.404Q72.0591 109.337 72.0795 109.272Q72.1 109.207 72.1327 109.147Q72.1654 109.088 72.2091 109.036Q72.2528 108.984 72.3058 108.941Q72.3588 108.899 72.4191 108.867Q72.4794 108.836 72.5447 108.817Q72.6099 108.798 72.6776 108.792Q72.7453 108.786 72.8129 108.794Q72.8804 108.801 72.9452 108.821Q73.01 108.842 73.0696 108.875L77.0946 111.085C77.101 111.088 77.1074 111.092 77.1137 111.096Q77.9406 111.584 78.8943 111.334Q79.8405 111.085 80.3026 110.272C80.306 110.266 80.3095 110.26 80.3026 110.272C80.306 110.266 80.3095 110.26 80.3131 110.254C80.9728 109.17 80.5872 107.75 79.4809 107.139L75.5134 104.986Q75.4536 104.953 75.4014 104.91Q75.3491 104.867 75.3064 104.814Q75.2636 104.761 75.2319 104.701Q75.2003 104.641 75.181 104.576Q75.1616 104.51 75.1554 104.443Q75.1492 104.375 75.1563 104.307Q75.1634 104.24 75.1835 104.175Q75.2037 104.11 75.2361 104.05Q75.2685 103.991 75.3119 103.938Q75.3554 103.886 75.4082 103.843Q75.461 103.8 75.5211 103.769Q75.5813 103.737 75.6464 103.718Q75.7116 103.699 75.7793 103.692Q75.8469 103.686 75.9145 103.693Q75.9821 103.7 76.047 103.72Q76.1119 103.741 76.1717 103.773Z"></path><path id="路径 16" fill-rule="evenodd" style="fill:#FFFFFF" opacity="1" d="M76.5325 108.517L69.9775 104.947C69.7475 104.833 69.69 104.607 69.805 104.38C69.92 104.153 70.15 104.097 70.38 104.21L76.935 107.78C77.165 107.893 77.2225 108.12 77.1075 108.347C76.9925 108.517 76.705 108.63 76.5325 108.517Z"></path><path  id="路径 17" style="fill:#0C296E; opacity:1;" d="M54.0379 99.5864L57.0854 102.306Q57.1222 102.339 57.1518 102.379Q57.1814 102.418 57.2028 102.462Q57.2242 102.507 57.2366 102.554Q57.2489 102.602 57.2517 102.651Q57.2545 102.7 57.2476 102.749Q57.2408 102.798 57.2245 102.844Q57.2083 102.891 57.1833 102.933Q57.1583 102.976 57.1255 103.012Q57.0927 103.049 57.0534 103.079Q57.0141 103.108 56.9697 103.13Q56.9254 103.151 56.8777 103.163Q56.83 103.176 56.7808 103.179Q56.7317 103.181 56.6829 103.175Q56.6341 103.168 56.5876 103.151Q56.5411 103.135 56.4987 103.11Q56.4563 103.085 56.4195 103.052L53.3721 100.332Q53.3353 100.3 53.3057 100.26Q53.276 100.221 53.2546 100.177Q53.2332 100.132 53.2209 100.085Q53.2086 100.037 53.2058 99.9878Q53.203 99.9386 53.2099 99.8898Q53.2167 99.8411 53.2329 99.7946Q53.2492 99.7481 53.2742 99.7057Q53.2992 99.6632 53.332 99.6265Q53.3648 99.5897 53.4041 99.5601Q53.4434 99.5305 53.4878 99.5091Q53.5321 99.4877 53.5798 99.4753Q53.6275 99.463 53.6766 99.4602Q53.7258 99.4574 53.7746 99.4643Q53.8233 99.4711 53.8698 99.4874Q53.9163 99.5036 53.9588 99.5286Q54.0012 99.5536 54.0379 99.5864ZM51.0315 105.474L55.574 104.681Q55.6225 104.672 55.6717 104.673Q55.7209 104.675 55.769 104.685Q55.8171 104.696 55.8621 104.716Q55.9071 104.736 55.9474 104.764Q55.9877 104.793 56.0217 104.828Q56.0557 104.864 56.0821 104.905Q56.1085 104.947 56.1263 104.993Q56.1441 105.039 56.1525 105.087Q56.161 105.136 56.1599 105.185Q56.1587 105.234 56.148 105.282Q56.1372 105.33 56.1173 105.375Q56.0974 105.42 56.0691 105.461Q56.0408 105.501 56.0052 105.535Q55.9695 105.569 55.9279 105.595Q55.8864 105.622 55.8404 105.64Q55.7945 105.657 55.746 105.666L51.2035 106.459Q51.155 106.468 51.1058 106.467Q51.0565 106.465 51.0085 106.455Q50.9604 106.444 50.9154 106.424Q50.8703 106.404 50.83 106.376Q50.7897 106.347 50.7557 106.312Q50.7217 106.276 50.6954 106.235Q50.669 106.193 50.6512 106.147Q50.6334 106.101 50.6249 106.053Q50.6165 106.004 50.6176 105.955Q50.6188 105.906 50.6295 105.858Q50.6403 105.81 50.6602 105.765Q50.6801 105.719 50.7084 105.679Q50.7367 105.639 50.7723 105.605Q50.8079 105.571 50.8495 105.545Q50.8911 105.518 50.937 105.5Q50.983 105.483 51.0315 105.474ZM57.6526 107.733L55.6976 111.36Q55.6742 111.403 55.6429 111.441Q55.6115 111.479 55.5733 111.51Q55.5351 111.541 55.4916 111.565Q55.4481 111.588 55.4009 111.602Q55.3538 111.616 55.3047 111.621Q55.2557 111.625 55.2067 111.62Q55.1577 111.615 55.1107 111.601Q55.0636 111.586 55.0202 111.563Q54.9769 111.54 54.9389 111.508Q54.901 111.477 54.8699 111.439Q54.8388 111.4 54.8157 111.357Q54.7926 111.313 54.7785 111.266Q54.7644 111.219 54.7597 111.17Q54.7551 111.121 54.7601 111.072Q54.7651 111.023 54.7795 110.976Q54.794 110.929 54.8174 110.885L56.7724 107.259Q56.7957 107.215 56.8271 107.178Q56.8585 107.14 56.8967 107.108Q56.9348 107.077 56.9783 107.054Q57.0219 107.031 57.069 107.017Q57.1162 107.003 57.1652 106.998Q57.2143 106.994 57.2633 106.999Q57.3122 107.004 57.3593 107.018Q57.4064 107.033 57.4497 107.056Q57.4931 107.079 57.531 107.111Q57.569 107.142 57.6001 107.18Q57.6312 107.218 57.6543 107.262Q57.6773 107.305 57.6915 107.353Q57.7056 107.4 57.7102 107.449Q57.7149 107.498 57.7099 107.547Q57.7049 107.596 57.6904 107.643Q57.676 107.69 57.6526 107.733Z"></path><path id="路径 18" fill-rule="evenodd" style="fill:#FFFFFF" opacity="1" d="M170.487 90.6666C170.536 90.6666 170.585 90.6642 170.634 90.6593C170.683 90.6548 170.731 90.6478 170.779 90.6383C170.827 90.6289 170.875 90.6172 170.922 90.6032C170.968 90.5892 171.014 90.573 171.06 90.5545C171.105 90.5359 171.149 90.5154 171.192 90.4927C171.236 90.47 171.277 90.4453 171.318 90.4184C171.359 90.3916 171.398 90.3629 171.436 90.3323C171.474 90.3017 171.51 90.2692 171.544 90.2348C171.579 90.2009 171.612 90.1652 171.643 90.1277C171.674 90.0907 171.704 90.052 171.731 90.0116C171.758 89.9715 171.783 89.9304 171.806 89.888C171.829 89.8454 171.85 89.8018 171.869 89.7571C171.888 89.7126 171.904 89.6672 171.918 89.6212C171.932 89.5751 171.944 89.5282 171.954 89.4806C171.964 89.4334 171.97 89.3858 171.975 89.3378C171.98 89.2898 171.982 89.2417 171.982 89.1933C171.982 89.145 171.98 89.0968 171.975 89.0488C171.97 89.0008 171.964 88.9532 171.954 88.906C171.944 88.8584 171.932 88.8116 171.918 88.7655C171.904 88.7194 171.888 88.6741 171.869 88.6295C171.85 88.5849 171.829 88.5413 171.806 88.4986C171.783 88.4563 171.758 88.4149 171.731 88.3745C171.704 88.3344 171.674 88.2959 171.643 88.2589C171.612 88.2215 171.579 88.1858 171.544 88.1518C171.51 88.1174 171.474 88.0849 171.436 88.0543C171.398 88.0237 171.359 87.995 171.318 87.9682C171.277 87.9414 171.236 87.9166 171.192 87.894C171.149 87.8713 171.105 87.8507 171.06 87.8322C171.014 87.8137 170.968 87.7974 170.922 87.7834C170.875 87.7695 170.827 87.7578 170.779 87.7483C170.731 87.7389 170.683 87.7319 170.634 87.7274C170.585 87.7224 170.536 87.72 170.487 87.72C170.439 87.72 170.39 87.7224 170.341 87.7274C170.292 87.7319 170.244 87.7389 170.196 87.7483C170.148 87.7578 170.1 87.7695 170.053 87.7834C170.007 87.7974 169.961 87.8137 169.915 87.8322C169.87 87.8507 169.826 87.8713 169.783 87.894C169.739 87.9166 169.698 87.9414 169.657 87.9682C169.616 87.995 169.577 88.0237 169.539 88.0543C169.501 88.0849 169.465 88.1174 169.43 88.1518C169.396 88.1858 169.363 88.2215 169.332 88.2589C169.301 88.2959 169.271 88.3346 169.244 88.3751C169.217 88.4151 169.192 88.4563 169.169 88.4986C169.146 88.5413 169.125 88.5849 169.106 88.6295C169.087 88.6741 169.071 88.7194 169.057 88.7655C169.043 88.8116 169.031 88.8584 169.021 88.906C169.011 88.9532 169.005 89.0008 169 89.0488C168.995 89.0968 168.992 89.145 168.992 89.1933C168.992 89.2417 168.995 89.2898 169 89.3378C169.005 89.3858 169.011 89.4334 169.021 89.4806C169.031 89.5282 169.043 89.5751 169.057 89.6212C169.071 89.6672 169.087 89.7126 169.106 89.7571C169.125 89.8018 169.146 89.8454 169.169 89.888C169.192 89.9304 169.217 89.9715 169.244 90.0116C169.271 90.052 169.301 90.0907 169.332 90.1277C169.363 90.1652 169.396 90.2009 169.43 90.2348C169.465 90.2692 169.501 90.3017 169.539 90.3323C169.577 90.3629 169.616 90.3916 169.657 90.4184C169.698 90.4453 169.739 90.47 169.783 90.4927C169.826 90.5154 169.87 90.5359 169.915 90.5545C169.961 90.573 170.007 90.5892 170.053 90.6032C170.1 90.6172 170.148 90.6289 170.196 90.6383C170.244 90.6478 170.292 90.6548 170.341 90.6593C170.39 90.6642 170.439 90.6666 170.487 90.6666ZM165.025 92.9328C165.059 92.9335 165.094 92.9326 165.128 92.9299C165.162 92.9277 165.196 92.9235 165.23 92.9174C165.264 92.9114 165.298 92.9039 165.331 92.8948C165.364 92.8853 165.396 92.8746 165.429 92.8625C165.46 92.85 165.492 92.836 165.522 92.8205C165.553 92.8051 165.583 92.7881 165.611 92.7695C165.641 92.751 165.668 92.7312 165.695 92.7101C165.722 92.6889 165.748 92.6666 165.772 92.6432C165.797 92.6194 165.821 92.5945 165.843 92.5684C165.865 92.5423 165.886 92.5153 165.905 92.4874C165.924 92.4594 165.942 92.4305 165.959 92.4007C165.975 92.3708 165.99 92.3404 166.004 92.3094C166.017 92.2781 166.029 92.2461 166.039 92.2137C166.048 92.1812 166.057 92.1483 166.064 92.1151C166.071 92.0818 166.076 92.0484 166.08 92.0148C166.083 91.9811 166.085 91.9473 166.085 91.9133C166.085 91.8793 166.083 91.8455 166.08 91.8119C166.076 91.7783 166.071 91.7448 166.064 91.7116C166.058 91.6783 166.049 91.6455 166.039 91.613C166.029 91.5805 166.017 91.5486 166.004 91.5172C165.99 91.4862 165.975 91.4558 165.959 91.426C165.943 91.3961 165.925 91.3672 165.905 91.3393C165.886 91.311 165.865 91.2839 165.843 91.2583C165.821 91.2322 165.798 91.2072 165.773 91.1834C165.748 91.1597 165.723 91.1372 165.696 91.116C165.669 91.0949 165.641 91.0752 165.612 91.0571C165.583 91.0386 165.553 91.0216 165.523 91.0061C165.492 90.9906 165.461 90.9766 165.429 90.9641C165.397 90.9517 165.364 90.9408 165.331 90.9313C165.298 90.9222 165.265 90.9147 165.231 90.9086C165.197 90.903 165.163 90.8988 165.128 90.8961C165.095 90.8935 165.06 90.8926 165.026 90.8933C164.992 90.8941 164.959 90.8963 164.926 90.9001C164.893 90.9043 164.86 90.9099 164.827 90.9171C164.794 90.9239 164.762 90.9324 164.731 90.9426C164.699 90.9528 164.667 90.9645 164.637 90.9778C164.606 90.9906 164.576 91.0051 164.547 91.0214C164.518 91.0372 164.49 91.0544 164.462 91.073C164.435 91.0918 164.409 91.1119 164.383 91.133C164.357 91.1542 164.333 91.1765 164.31 91.1999C164.286 91.2237 164.264 91.2484 164.243 91.2741C164.222 91.2998 164.203 91.3262 164.184 91.3535C164.166 91.381 164.149 91.4094 164.134 91.4384C164.118 91.4675 164.104 91.4974 164.091 91.528C164.079 91.5586 164.068 91.5896 164.058 91.6209C164.048 91.6526 164.041 91.6846 164.034 91.7167C164.028 91.7492 164.023 91.7817 164.019 91.8141C164.016 91.847 164.015 91.8799 164.015 91.9128C164.015 91.9456 164.016 91.9785 164.019 92.0114C164.023 92.0442 164.027 92.0767 164.034 92.1088C164.04 92.1409 164.048 92.1729 164.058 92.2046C164.068 92.2359 164.079 92.2669 164.091 92.2975C164.104 92.3281 164.118 92.358 164.133 92.3871C164.149 92.4161 164.166 92.4445 164.184 92.472C164.202 92.4996 164.222 92.5263 164.243 92.5519C164.264 92.5776 164.286 92.6022 164.309 92.6256C164.333 92.649 164.357 92.6713 164.382 92.6925C164.408 92.714 164.434 92.734 164.462 92.7525C164.489 92.7711 164.517 92.7884 164.547 92.8047C164.576 92.8205 164.606 92.8351 164.636 92.8483C164.667 92.8615 164.698 92.8731 164.73 92.8829C164.762 92.8931 164.794 92.9017 164.827 92.909C164.859 92.9161 164.892 92.9216 164.926 92.9254C164.958 92.9295 164.992 92.932 165.025 92.9328ZM63.6525 61.88L60.3175 61.1433L62.6175 58.65L63.6525 61.88ZM156.63 107.95L158.297 110.557L159.735 107.837L156.63 107.95Z"></path><path  id="路径 18" style="fill:#0C296E; opacity:1;" d="M170.487 90.4166M170.487 90.4166Q170.549 90.4166 170.609 90.4105Q170.672 90.4047 170.73 90.3931Q170.793 90.3809 170.85 90.3638Q170.909 90.3461 170.965 90.323Q171.022 90.2996 171.076 90.2714Q171.127 90.2447 171.181 90.2095Q171.234 90.1747 171.277 90.1389Q171.326 90.0999 171.368 90.0578Q171.412 90.0152 171.451 89.9681Q171.491 89.9205 171.523 89.8726Q171.559 89.8192 171.586 89.7687Q171.614 89.7181 171.639 89.6593Q171.66 89.609 171.679 89.5467Q171.696 89.495 171.709 89.4303Q171.72 89.375 171.726 89.314Q171.732 89.2551 171.732 89.1933Q171.732 89.1315 171.726 89.0756Q171.72 89.0116 171.709 88.9567Q171.696 88.8917 171.679 88.84Q171.66 88.7776 171.639 88.7274Q171.614 88.6685 171.586 88.6172Q171.558 88.5668 171.523 88.5135Q171.491 88.4668 171.452 88.4196Q171.412 88.3715 171.37 88.3313Q171.326 88.2867 171.279 88.2489Q171.234 88.2119 171.181 88.1772Q171.127 88.142 171.076 88.1152Q171.022 88.087 170.965 88.0637Q170.909 88.0406 170.85 88.0229Q170.793 88.0058 170.731 87.9937Q170.672 87.9819 170.611 87.9763Q170.548 87.97 170.487 87.97Q170.426 87.97 170.366 87.9761Q170.303 87.9819 170.245 87.9935Q170.182 88.0057 170.125 88.0229Q170.066 88.0406 170.01 88.0637Q169.953 88.087 169.899 88.1152Q169.848 88.142 169.794 88.1772Q169.741 88.212 169.698 88.2477Q169.65 88.2861 169.605 88.3303Q169.563 88.3721 169.524 88.4186Q169.484 88.4662 169.452 88.514Q169.416 88.5675 169.389 88.6179Q169.361 88.6686 169.336 88.7274Q169.315 88.7777 169.296 88.8399Q169.279 88.8917 169.266 88.9563Q169.255 89.0115 169.249 89.0727Q169.242 89.1316 169.242 89.1933Q169.242 89.255 169.249 89.311Q169.255 89.3751 169.266 89.4299Q169.279 89.4949 169.296 89.5467Q169.315 89.6089 169.336 89.6593Q169.361 89.7181 169.389 89.7694Q169.416 89.8192 169.452 89.8717Q169.484 89.9205 169.523 89.9671Q169.563 90.0145 169.606 90.0568Q169.65 90.1006 169.696 90.1377Q169.741 90.1747 169.794 90.2095Q169.848 90.2447 169.899 90.2714Q169.953 90.2997 170.01 90.323Q170.066 90.346 170.125 90.3638Q170.182 90.3809 170.244 90.393Q170.303 90.4047 170.364 90.4104Q170.426 90.4166 170.487 90.4166ZM170.487 90.9166Q170.401 90.9166 170.318 90.9082Q170.231 90.9002 170.148 90.8837Q170.062 90.8668 169.981 90.8426Q169.9 90.818 169.821 90.7859Q169.741 90.7535 169.666 90.714Q169.594 90.676 169.52 90.6274Q169.445 90.5782 169.382 90.5269Q169.318 90.4746 169.255 90.4129Q169.194 90.3532 169.14 90.2884Q169.084 90.221 169.037 90.1514Q168.988 90.0789 168.949 90.0067Q168.91 89.9351 168.876 89.855Q168.845 89.7816 168.818 89.6956Q168.795 89.6201 168.776 89.5313Q168.76 89.4498 168.751 89.3646Q168.742 89.2818 168.742 89.1933Q168.742 89.1048 168.751 89.025Q168.76 88.9368 168.776 88.8557Q168.795 88.7666 168.818 88.691Q168.845 88.605 168.876 88.5316Q168.91 88.4515 168.949 88.3792Q168.988 88.3077 169.037 88.2361Q169.084 88.1656 169.139 88.0992Q169.194 88.0335 169.255 87.9733Q169.318 87.912 169.381 87.8609Q169.445 87.8085 169.52 87.7592Q169.594 87.7107 169.666 87.6727Q169.741 87.6332 169.821 87.6007Q169.9 87.5686 169.981 87.544Q170.062 87.5198 170.147 87.5031Q170.231 87.4864 170.316 87.4786Q170.401 87.47 170.487 87.47Q170.574 87.47 170.657 87.4784Q170.744 87.4864 170.827 87.503Q170.913 87.5198 170.994 87.544Q171.075 87.5686 171.154 87.6007Q171.234 87.6332 171.309 87.6727Q171.381 87.7107 171.455 87.7592Q171.53 87.8084 171.593 87.8597Q171.66 87.914 171.718 87.9723Q171.779 88.0313 171.835 88.0982Q171.891 88.1655 171.938 88.2355Q171.987 88.308 172.026 88.38Q172.065 88.4515 172.099 88.5316Q172.13 88.6049 172.157 88.691Q172.18 88.7666 172.199 88.8553Q172.215 88.937 172.224 89.022Q172.232 89.1047 172.232 89.1933Q172.232 89.2819 172.224 89.3617Q172.215 89.4497 172.199 89.5309Q172.18 89.6201 172.157 89.6956Q172.13 89.7817 172.099 89.855Q172.065 89.9351 172.026 90.0074Q171.987 90.079 171.938 90.1506Q171.891 90.2211 171.836 90.2874Q171.779 90.3554 171.721 90.4119Q171.66 90.4727 171.594 90.5258Q171.53 90.5782 171.455 90.6274Q171.381 90.676 171.309 90.714Q171.234 90.7535 171.154 90.7859Q171.075 90.818 170.994 90.8426Q170.913 90.8668 170.828 90.8835Q170.744 90.9002 170.659 90.908Q170.574 90.9166 170.487 90.9166ZM165.03 92.6828M165.03 92.6828Q165.07 92.6837 165.108 92.6807Q165.149 92.678 165.186 92.6713Q165.228 92.664 165.264 92.6538Q165.303 92.6427 165.341 92.6284Q165.376 92.6146 165.409 92.5976Q165.445 92.5795 165.476 92.5594Q165.508 92.539 165.541 92.5131Q165.569 92.4915 165.601 92.4616Q165.628 92.4352 165.651 92.4078Q165.677 92.3771 165.698 92.3469Q165.721 92.3145 165.741 92.2788Q165.759 92.2455 165.774 92.2113Q165.79 92.1729 165.799 92.1416Q165.812 92.1002 165.819 92.0643Q165.827 92.0269 165.831 91.9892Q165.835 91.9515 165.835 91.9133Q165.835 91.8751 165.831 91.8374Q165.827 91.7997 165.819 91.7624Q165.812 91.7254 165.801 91.6889Q165.79 91.6537 165.773 91.6144Q165.759 91.5812 165.741 91.5479Q165.721 91.5126 165.7 91.4826Q165.677 91.4491 165.653 91.4203Q165.625 91.3879 165.6 91.3636Q165.569 91.3342 165.542 91.3129Q165.51 91.2879 165.481 91.2697Q165.445 91.2471 165.41 91.229Q165.376 91.212 165.338 91.1967Q165.302 91.183 165.262 91.1715Q165.226 91.1618 165.187 91.1547Q165.15 91.1485 165.109 91.1454Q165.071 91.1424 165.031 91.1433Q164.992 91.1441 164.954 91.1485Q164.919 91.1529 164.881 91.1613Q164.842 91.1694 164.807 91.1806Q164.769 91.1928 164.736 91.2071Q164.7 91.2223 164.668 91.24Q164.634 91.2587 164.601 91.2805Q164.573 91.3005 164.541 91.3266Q164.514 91.3482 164.488 91.3751Q164.463 91.3999 164.435 91.4336Q164.413 91.4613 164.391 91.4935Q164.373 91.5213 164.354 91.5562Q164.336 91.5912 164.322 91.6235Q164.309 91.6561 164.297 91.6954Q164.288 91.7245 164.28 91.765Q164.272 91.8058 164.268 91.8406Q164.265 91.8776 164.265 91.9128Q164.265 91.9479 164.268 91.9895Q164.272 92.0264 164.279 92.0605Q164.286 92.0958 164.297 92.131Q164.309 92.1694 164.322 92.202Q164.338 92.239 164.354 92.2693Q164.369 92.2986 164.394 92.3364Q164.413 92.3658 164.435 92.3924Q164.461 92.4245 164.485 92.4482Q164.515 92.4776 164.542 92.5006Q164.572 92.5252 164.601 92.545Q164.634 92.5672 164.668 92.5861Q164.7 92.6036 164.736 92.6189Q164.768 92.6329 164.804 92.6441Q164.843 92.6565 164.88 92.6648Q164.917 92.6728 164.954 92.677Q164.994 92.682 165.031 92.6828L165.03 92.6828ZM165.019 93.1827Q164.957 93.1813 164.897 93.1738Q164.835 93.1666 164.773 93.1531Q164.712 93.1397 164.656 93.1217Q164.594 93.1025 164.537 93.0777Q164.481 93.0537 164.425 93.0233Q164.371 92.9929 164.323 92.9601Q164.272 92.926 164.222 92.8843Q164.178 92.8476 164.133 92.803Q164.089 92.7598 164.051 92.7115Q164.012 92.6648 163.974 92.6077Q163.938 92.5525 163.913 92.5048Q163.885 92.4528 163.86 92.393Q163.838 92.3397 163.819 92.2782Q163.8 92.218 163.788 92.1571Q163.777 92.101 163.77 92.0331Q163.765 91.9697 163.765 91.9128Q163.765 91.8558 163.771 91.7878Q163.777 91.7314 163.789 91.6684Q163.802 91.6023 163.819 91.5465Q163.838 91.4858 163.86 91.4325Q163.883 91.3775 163.913 91.3207Q163.943 91.2641 163.977 91.2134Q164.011 91.1637 164.051 91.1146Q164.093 91.0639 164.131 91.0246Q164.177 90.9783 164.225 90.9394Q164.271 90.9013 164.323 90.8654Q164.375 90.8303 164.426 90.8028Q164.481 90.7721 164.537 90.7484Q164.593 90.7243 164.654 90.7047Q164.714 90.6852 164.774 90.6729Q164.834 90.6597 164.897 90.6517Q164.959 90.6447 165.02 90.6434Q165.085 90.642 165.148 90.6469Q165.21 90.6517 165.275 90.6625Q165.336 90.6735 165.401 90.6911Q165.462 90.7087 165.521 90.7316Q165.582 90.7555 165.636 90.7831Q165.695 90.8128 165.744 90.8445Q165.796 90.8771 165.85 90.9191Q165.897 90.9562 165.946 91.0033Q165.989 91.0439 166.034 91.0962Q166.075 91.1443 166.11 91.196Q166.148 91.2499 166.177 91.3041Q166.209 91.3606 166.234 91.42Q166.261 91.484 166.277 91.537Q166.298 91.6024 166.309 91.6608Q166.322 91.7232 166.328 91.7864Q166.335 91.8495 166.335 91.9133Q166.335 91.9771 166.328 92.0403Q166.322 92.1034 166.309 92.1658Q166.297 92.2234 166.278 92.2857Q166.261 92.3426 166.234 92.4076Q166.209 92.466 166.177 92.5225Q166.145 92.5804 166.112 92.6278Q166.075 92.6816 166.034 92.729Q165.994 92.7769 165.944 92.8247Q165.896 92.8708 165.849 92.907Q165.797 92.9482 165.747 92.9797Q165.694 93.0138 165.636 93.0435Q165.581 93.0711 165.516 93.0966Q165.46 93.1177 165.398 93.1357Q165.338 93.1521 165.274 93.1636Q165.21 93.1751 165.147 93.1792Q165.085 93.1841 165.02 93.1827L165.019 93.1827ZM63.5986 62.1241L59.8388 61.2936L62.7247 58.1651L64.0233 62.2179L63.5986 62.1241ZM63.7064 61.6359L63.6525 61.88L63.4144 61.9563L62.3794 58.7263L62.6175 58.65L62.8013 58.8195L60.5013 61.3128L60.3175 61.1433L60.3714 60.8992L63.7064 61.6359ZM156.841 107.815L158.508 110.422L158.297 110.557L158.076 110.44L159.514 107.72L159.735 107.837L159.744 108.086L156.639 108.2L156.63 107.95L156.841 107.815ZM156.184 107.716L160.158 107.571L158.318 111.053L156.419 108.085L156.184 107.716Z"></path><path  id="路径 19" style="fill:#0C296E; opacity:1;" d="M81.3447 50.7203L80.5397 51.0603Q80.4939 51.0796 80.4442 51.08Q80.3945 51.0803 80.3484 51.0616Q80.3023 51.0429 80.2669 51.008Q80.2315 50.9731 80.2122 50.9273Q80.1928 50.8814 80.1925 50.8317Q80.1921 50.782 80.2108 50.7359Q80.2295 50.6898 80.2645 50.6544Q80.2994 50.619 80.3452 50.5997L81.1502 50.2597Q81.196 50.2403 81.2457 50.24Q81.2954 50.2396 81.3415 50.2584Q81.3876 50.2771 81.423 50.312Q81.4584 50.3469 81.4778 50.3927Q81.4971 50.4385 81.4975 50.4883Q81.4978 50.538 81.4791 50.5841Q81.4604 50.6301 81.4255 50.6655Q81.3905 50.7009 81.3447 50.7203ZM79.4386 51.5171L78.6911 51.8004Q78.6446 51.8181 78.5949 51.8165Q78.5452 51.815 78.4998 51.7946Q78.4545 51.7742 78.4204 51.738Q78.3863 51.7018 78.3687 51.6553Q78.3511 51.6088 78.3526 51.5591Q78.3541 51.5093 78.3745 51.464Q78.3949 51.4187 78.4311 51.3846Q78.4673 51.3505 78.5139 51.3329L79.2614 51.0496Q79.3078 51.0319 79.3576 51.0334Q79.4073 51.0349 79.4526 51.0554Q79.4979 51.0758 79.532 51.112Q79.5661 51.1482 79.5837 51.1947Q79.6013 51.2412 79.5998 51.2909Q79.5983 51.3406 79.5779 51.386Q79.5575 51.4313 79.5213 51.4654Q79.4851 51.4995 79.4386 51.5171ZM79.5764 49.6473L79.9214 50.384Q79.9424 50.429 79.9447 50.4787Q79.9469 50.5283 79.93 50.5751Q79.9131 50.6219 79.8796 50.6586Q79.846 50.6953 79.801 50.7164Q79.756 50.7375 79.7063 50.7397Q79.6566 50.742 79.6098 50.7251Q79.5631 50.7081 79.5264 50.6746Q79.4896 50.6411 79.4686 50.596L79.1236 49.8594Q79.1025 49.8143 79.1002 49.7646Q79.098 49.715 79.1149 49.6682Q79.1318 49.6214 79.1654 49.5847Q79.1989 49.548 79.2439 49.5269Q79.289 49.5058 79.3386 49.5036Q79.3883 49.5013 79.4351 49.5183Q79.4818 49.5352 79.5185 49.5687Q79.5553 49.6023 79.5764 49.6473ZM80.39 51.4815L80.6775 52.2748Q80.6944 52.3216 80.6922 52.3712Q80.69 52.4209 80.6689 52.466Q80.6478 52.511 80.6111 52.5445Q80.5744 52.5781 80.5276 52.595Q80.4809 52.612 80.4312 52.6097Q80.3815 52.6075 80.3365 52.5864Q80.2914 52.5653 80.2579 52.5286Q80.2244 52.4919 80.2074 52.4452L79.9199 51.6518Q79.903 51.6051 79.9052 51.5554Q79.9074 51.5057 79.9285 51.4607Q79.9496 51.4156 79.9863 51.3821Q80.023 51.3486 80.0698 51.3316Q80.1165 51.3147 80.1662 51.3169Q80.2159 51.3191 80.2609 51.3402Q80.306 51.3613 80.3395 51.398Q80.3731 51.4347 80.39 51.4815ZM68.931 70.7775L68.1835 71.1175Q68.1382 71.1381 68.0885 71.1398Q68.0388 71.1415 67.9922 71.1241Q67.9457 71.1066 67.9093 71.0727Q67.873 71.0387 67.8524 70.9935Q67.8318 70.9482 67.8301 70.8985Q67.8284 70.8488 67.8459 70.8023Q67.8633 70.7557 67.8972 70.7193Q67.9312 70.683 67.9765 70.6624L68.724 70.3224Q68.7692 70.3018 68.8189 70.3001Q68.8686 70.2984 68.9152 70.3159Q68.9617 70.3333 68.9981 70.3673Q69.0344 70.4012 69.055 70.4465Q69.0756 70.4917 69.0773 70.5414Q69.079 70.5911 69.0616 70.6377Q69.0441 70.6843 69.0102 70.7206Q68.9762 70.757 68.931 70.7775ZM67.0705 71.5791L66.2655 71.8625Q66.2186 71.879 66.1689 71.8763Q66.1192 71.8736 66.0744 71.8521Q66.0296 71.8306 65.9964 71.7936Q65.9632 71.7565 65.9466 71.7096Q65.9301 71.6627 65.9328 71.6131Q65.9355 71.5634 65.957 71.5186Q65.9785 71.4737 66.0155 71.4405Q66.0526 71.4073 66.0995 71.3908L66.9045 71.1075Q66.9514 71.091 67.001 71.0937Q67.0507 71.0964 67.0955 71.1179Q67.1404 71.1394 67.1736 71.1764Q67.2068 71.2134 67.2233 71.2603Q67.2398 71.3072 67.2371 71.3569Q67.2344 71.4065 67.2129 71.4514Q67.1914 71.4962 67.1544 71.5294Q67.1174 71.5626 67.0705 71.5791ZM67.2225 69.7281L67.51 70.5215Q67.5269 70.5682 67.5247 70.6179Q67.5225 70.6676 67.5014 70.7126Q67.4803 70.7577 67.4436 70.7912Q67.4069 70.8247 67.3601 70.8417Q67.3134 70.8586 67.2637 70.8564Q67.214 70.8541 67.169 70.8331Q67.1239 70.812 67.0904 70.7753Q67.0569 70.7386 67.0399 70.6918L66.7524 69.8985Q66.7355 69.8517 66.7377 69.8021Q66.74 69.7524 66.761 69.7073Q66.7821 69.6623 66.8188 69.6288Q66.8555 69.5952 66.9023 69.5783Q66.949 69.5613 66.9987 69.5636Q67.0484 69.5658 67.0934 69.5869Q67.1385 69.608 67.172 69.6447Q67.2056 69.6814 67.2225 69.7281ZM67.9642 71.5269L68.3092 72.3203Q68.3291 72.3659 68.3299 72.4156Q68.3308 72.4653 68.3126 72.5116Q68.2943 72.5579 68.2598 72.5936Q68.2253 72.6294 68.1797 72.6492Q68.1341 72.6691 68.0843 72.6699Q68.0346 72.6708 67.9883 72.6526Q67.9421 72.6344 67.9063 72.5998Q67.8705 72.5653 67.8507 72.5197L67.5057 71.7263Q67.4859 71.6807 67.485 71.631Q67.4841 71.5813 67.5023 71.535Q67.5206 71.4888 67.5551 71.453Q67.5897 71.4172 67.6353 71.3974Q67.6809 71.3775 67.7306 71.3767Q67.7803 71.3758 67.8266 71.394Q67.8728 71.4122 67.9086 71.4468Q67.9444 71.4813 67.9642 71.5269Z"></path></g></g><defs><rect id="path_0" x="0" y="0" width="230" height="170" rx="0" ry="0"/></defs></svg>