<?xml version="1.0" standalone="no"?><!DOCTYPE svg PUBLIC "-//W3C//DTD SVG 1.1//EN" "http://www.w3.org/Graphics/SVG/1.1/DTD/svg11.dtd"><svg t="1706591248233" class="icon" viewBox="0 0 1024 1024" version="1.1" xmlns="http://www.w3.org/2000/svg" p-id="38161" xmlns:xlink="http://www.w3.org/1999/xlink" width="200" height="200"><path d="M947 426.9L569.3 128.3c-32.5-25.8-83.5-25.8-116 0L75.8 426.9c-13 10.3-15.1 29-5 41.8s28.5 15.1 41.5 5l11.7-9.6V825c0 51.1 54 89.4 101.2 89.4h595.9c46.8 0 77.5-35.9 77.5-89.4V465.4l10.9 8.3c5.4 4.3 12.2 6.4 18.7 6.4 8.8 0 17.6-3.8 23.5-11.4 10.3-12.8 8.2-31.5-4.7-41.8zM481.5 854.7V689.4c0-8.2 14.9-12.3 29.8-12.3s29.8 4.2 29.8 12.3v165.1l-59.6 0.2z m357.7-29.8c0 19.7-5.4 29.8-17.9 29.8h-220c0-0.5-0.6-0.8-0.6-1.3v-164c0-34.6-27.9-71.9-89.4-71.9s-89.4 37.3-89.4 71.9v164c0 0.5 0.8 0.8 0.8 1.3H225.4c-18.7 0-41.6-16.2-41.6-29.8V416.8l306.1-241.7c11.1-8.6 30.9-8.6 41.8 0L839 418.3V825h0.2z" p-id="38162" fill="#707070"></path></svg>