<svg viewBox="0 0 400 300" fill="none" xmlns="http://www.w3.org/2000/svg"><path d="M138.326 249.549a3.493 3.493 0 0 1-1.576-.348 2.927 2.927 0 0 1-1.124-.954 2.595 2.595 0 0 1-.462-1.382h1.193c.046.46.255.842.626 1.143.375.298.822.448 1.343.448.417 0 .788-.098 1.113-.294.328-.195.585-.464.771-.805a2.39 2.39 0 0 0 .283-1.168A2.39 2.39 0 0 0 140.2 245a2.146 2.146 0 0 0-.796-.83 2.245 2.245 0 0 0-1.158-.308 3.204 3.204 0 0 0-.959.144c-.329.096-.599.22-.811.373l-1.153-.139.616-5.012h5.29v1.094h-4.256l-.358 3.003h.06c.209-.166.471-.303.786-.413.314-.109.643-.164.984-.164.623 0 1.178.149 1.665.448.491.295.875.699 1.154 1.213.282.513.422 1.1.422 1.76 0 .649-.145 1.229-.437 1.74a3.197 3.197 0 0 1-1.193 1.203c-.507.292-1.084.437-1.73.437Zm8.656 0c-.749 0-1.387-.203-1.914-.611-.527-.411-.929-1.006-1.208-1.785-.278-.782-.417-1.727-.417-2.834 0-1.1.139-2.04.417-2.819.282-.782.686-1.378 1.213-1.789.531-.415 1.167-.622 1.909-.622.743 0 1.378.207 1.905.622.53.411.934 1.007 1.213 1.789.281.779.422 1.719.422 2.819 0 1.107-.139 2.052-.417 2.834-.279.779-.682 1.374-1.209 1.785-.527.408-1.165.611-1.914.611Zm0-1.093c.743 0 1.32-.358 1.731-1.074.411-.716.616-1.737.616-3.063 0-.881-.094-1.632-.283-2.252-.186-.62-.454-1.092-.806-1.417a1.776 1.776 0 0 0-1.258-.487c-.735 0-1.31.363-1.725 1.089-.414.722-.621 1.745-.621 3.067 0 .882.093 1.631.278 2.247.186.617.453 1.086.801 1.407a1.81 1.81 0 0 0 1.267.483Zm5.429.954v-.895l3.361-3.679c.395-.431.719-.805.975-1.123.255-.322.444-.623.566-.905.126-.285.189-.583.189-.895 0-.358-.086-.668-.258-.93a1.67 1.67 0 0 0-.696-.606 2.252 2.252 0 0 0-.995-.214c-.391 0-.732.081-1.024.244a1.673 1.673 0 0 0-.671.671 2.097 2.097 0 0 0-.234 1.014h-1.173c0-.597.138-1.12.413-1.571a2.864 2.864 0 0 1 1.123-1.054 3.39 3.39 0 0 1 1.606-.378c.597 0 1.125.126 1.586.378.461.252.822.592 1.084 1.019.262.428.393.903.393 1.427 0 .375-.068.741-.204 1.099-.133.354-.365.75-.696 1.188-.328.434-.784.964-1.367 1.591l-2.287 2.446v.079h4.733v1.094h-6.424Zm9.352-1.302a.859.859 0 0 1-.631-.264.86.86 0 0 1-.264-.631c0-.246.088-.456.264-.632a.862.862 0 0 1 .631-.263c.245 0 .456.088.631.263a.861.861 0 0 1 .264.632.85.85 0 0 1-.124.447.934.934 0 0 1-.324.328.845.845 0 0 1-.447.12Zm0-5.151a.862.862 0 0 1-.631-.263.863.863 0 0 1-.264-.632c0-.245.088-.456.264-.631a.859.859 0 0 1 .631-.264c.245 0 .456.088.631.264a.859.859 0 0 1 .264.631.851.851 0 0 1-.124.448.942.942 0 0 1-.324.328.854.854 0 0 1-.447.119Zm4.404 1.833c.014-.56.028-1.106.028-1.582v-.77h2.114v2.352h-2.142Zm2.142-5.614v2.296h-2.114v-2.296h2.114Zm.966-.966h-4.032v4.998c0 2.058-.07 4.83-1.036 6.79.252.098.672.336.854.504.63-1.316.924-3.066 1.05-4.718h2.198v3.444c0 .196-.07.252-.266.266-.168.014-.756.014-1.4 0 .14.266.28.728.294.994.952 0 1.512-.014 1.862-.196.364-.182.476-.49.476-1.05V238.21Zm6.398 5.726c-.322 1.19-.798 2.24-1.4 3.136-.644-.924-1.148-1.988-1.526-3.136h2.926Zm.532-.994-.182.028h-4.536v-3.752h3.92v1.708c0 .168-.056.224-.28.224-.21.014-.938.014-1.792 0 .14.252.294.602.336.882 1.05 0 1.75 0 2.198-.14.42-.154.546-.42.546-.952v-2.688h-5.908v12.236h.98v-6.552h.35c.462 1.442 1.078 2.786 1.862 3.92-.644.756-1.372 1.358-2.142 1.778.21.182.476.532.616.77a8.188 8.188 0 0 0 2.114-1.792 8.504 8.504 0 0 0 2.268 1.89c.154-.252.434-.602.672-.798-.882-.434-1.666-1.064-2.338-1.834.882-1.246 1.554-2.814 1.918-4.718l-.602-.21Zm3.248 2.534v.924h9.716v-.924h-9.716Zm9.366 0-.014.14c-.252 2.38-.56 3.444-.924 3.752-.154.112-.322.126-.616.126-.35 0-1.26-.014-2.142-.098.182.266.322.658.336.938.84.056 1.68.056 2.1.042.518-.028.84-.098 1.134-.378.49-.434.798-1.512 1.12-4.06.028-.154.056-.462.056-.462h-1.05Zm-4.9-1.4c-.392 3.388-2.058 4.9-5.446 5.544.196.21.476.658.588.896 3.542-.868 5.39-2.548 5.95-6.342l-1.092-.098Zm-1.736-4.984v.91h6.79v-.91h-6.79Zm6.538 0v.14c-1.694 2.548-6.244 3.864-10.402 4.256.168.238.35.658.42.924 4.326-.504 8.988-1.904 11.018-4.928l-.644-.434-.182.042h-.21Zm-6.552 1.064-.868.364c1.764 2.31 5.152 3.388 9.24 3.724.126-.294.378-.7.588-.938-4.046-.238-7.434-1.176-8.96-3.15Zm.868-2.52c-.728 1.232-2.114 2.66-4.088 3.682.21.154.518.532.658.784 2.128-1.19 3.584-2.73 4.522-4.256l-1.092-.21Zm19.992 3.668h-2.618v-2.142h2.618v2.142Zm.98-2.996h-4.536v3.836h4.536v-3.836Zm-3.752 10.78v-2.226h2.548v2.226h-2.548Zm-3.192 0h-2.506v-2.226h2.506v2.226Zm-.112-7.784h-2.59v-2.142h2.59v2.142Zm7.98 2.842v-.938h-6.538c.238-.35.448-.728.63-1.12l-1.008-.322-.084.182v-3.64h-4.508v3.836h4.41a5.892 5.892 0 0 1-.714 1.064h-4.648v.938h3.738c-1.078.938-2.478 1.666-4.088 2.198.196.182.518.56.644.784.294-.098.588-.21.868-.336v3.71h.924v-.518h2.506v.476h.966v-4.48h-2.73a10.197 10.197 0 0 0 2.338-1.834h2.114c.588.7 1.372 1.316 2.254 1.834h-2.674v4.522h.924v-.518h2.548v.476h.966v-3.64c.294.112.602.21.896.294.154-.252.434-.63.658-.84-1.596-.378-3.206-1.162-4.27-2.128h3.878Zm3.332 2.31c.042-.504.07-.994.07-1.442h2.618v1.442h-2.688Zm2.688-3.654v1.372h-2.618v-1.372h2.618Zm.98-.882h-4.55v2.968c0 1.498-.126 3.514-1.19 4.984.196.098.588.448.742.658.686-.91 1.036-2.086 1.218-3.22h2.8v1.89c0 .182-.07.238-.238.252-.168 0-.756 0-1.386-.014.14.252.294.644.322.91.896 0 1.456-.014 1.806-.182.35-.154.476-.434.476-.938v-7.308Zm2.38 4.564c.028-.42.042-.826.042-1.204v-.266h2.828v1.47h-2.87Zm2.87-3.682v1.372h-2.828v-1.372h2.828Zm.994-.882h-4.774v3.36c0 1.428-.126 3.276-1.204 4.606.196.112.588.476.742.672.742-.896 1.106-2.072 1.274-3.22h2.968v1.876c0 .182-.07.224-.266.238-.154.014-.77.014-1.456 0 .154.252.308.658.35.924.938 0 1.512-.014 1.876-.168.378-.168.49-.448.49-.994v-7.294Zm-1.036-3.71v1.848h-3.962v-2.366h-1.036v2.366h-3.822v-1.848h-1.022v2.8h10.906v-2.8h-1.064Zm14.14.504-.224.07h-9.954v1.022h9.016c-.882.91-2.1 1.932-3.262 2.632h-.686v6.678c0 .252-.098.336-.406.35-.308.014-1.4.014-2.548-.028.168.294.378.742.42 1.036 1.428 0 2.352 0 2.884-.154.532-.168.728-.49.728-1.19v-5.782c1.708-.98 3.626-2.59 4.844-4.046l-.812-.588Z" fill="#9BA2AD"/><path d="M277.93 149.91h-56.57v18.64h56.57v-18.64Z" fill="#E0E2E3" stroke="#26417F" stroke-width=".25" stroke-miterlimit="10"/><path d="M232.57 156.36h-5.73v5.73h5.73v-5.73Z" fill="#FBC623" stroke="#26417F" stroke-width=".25" stroke-miterlimit="10"/><path d="M240.4 156.36h-5.73v5.73h5.73v-5.73Z" fill="#61D3BA" stroke="#26417F" stroke-width=".25" stroke-miterlimit="10"/><path d="M277.93 131.36h-56.57V150h56.57v-18.64Z" fill="#E0E2E3" stroke="#26417F" stroke-width=".25" stroke-miterlimit="10"/><path d="M232.57 137.82h-5.73v5.73h5.73v-5.73Z" fill="#FBC623" stroke="#26417F" stroke-width=".25" stroke-miterlimit="10"/><path d="M240.4 137.82h-5.73v5.73h5.73v-5.73Z" fill="#61D3BA" stroke="#26417F" stroke-width=".25" stroke-miterlimit="10"/><path d="M277.93 112.82h-56.57v18.64h56.57v-18.64Z" fill="#E0E2E3" stroke="#26417F" stroke-width=".25" stroke-miterlimit="10"/><path d="M232.57 119.28h-5.73v5.73h5.73v-5.73Z" fill="#FBC623" stroke="#26417F" stroke-width=".25" stroke-miterlimit="10"/><path d="M240.4 119.28h-5.73v5.73h5.73v-5.73Z" fill="#61D3BA" stroke="#26417F" stroke-width=".25" stroke-miterlimit="10"/><path d="M158 52.76c1.8 4.08 1.91 7.7.35 11.1-3.16 6.83-13.47 13-31.43 18.88a1.255 1.255 0 0 1 0-.26c17.82-5.83 28-12 31.15-18.73 1.54-3.32 1.42-6.88-.35-10.88-3.48-6.11-12.28-7.87-19.54-3.87l-.12-.22c.36-.19.71-.37 1.08-.54v.05l.23-.11c7.1-3.18 15.23-1.3 18.63 4.58Z" fill="#4F87FD"/><path d="M157.77 52.87c1.77 4 1.89 7.56.35 10.88-3.12 6.76-13.33 12.9-31.12 18.73.25-1.65.52-3.31.83-5 1.11-5.94 2.44-11.75 2.6-17.81a.683.683 0 0 0-.49-.74 118.85 118.85 0 0 0-8-9.62c-.18-3.17-.36-6.32-.26-9.49 7.18-1.17 14.37 2.07 17.5 8.36-.37.17-.72.35-1.08.54l.12.22c7.22-3.94 16.02-2.18 19.55 3.93Z" fill="#4F87FD"/><path d="m139.37 48.12-.23.11v-.05l.23-.06Z" fill="#4F87FD"/><path d="m139.37 48.12-.23.1c-3.13-6.29-10.32-9.53-17.5-8.36a2.255 2.255 0 0 1 0-.26c7.28-1.16 14.57 2.14 17.73 8.52ZM125.87 59.64a.31.31 0 0 0 .11.09c.34 6.33-.68 12.55-1.24 18.83-.13 1.43-.23 2.87-.33 4.31-1.27.52-2.59 1.06-4 1.6-8.87 2.8-15.69 1.15-19.21-4.64a12.511 12.511 0 0 1 5.24-18l-.12-.22c-.42.22-.82.44-1.22.68a13.087 13.087 0 0 1-.9-10.33 18.056 18.056 0 0 1 9.22-10.45c.666-.342 1.355-.64 2.06-.89.2 3.16.65 6.3 1.1 9.44a.8.8 0 0 0 .49.66c.053.1.124.188.21.26 3.008 2.74 5.875 5.63 8.59 8.66Z" fill="#4F87FD"/><path d="M124.41 82.87v.26c-1.25.51-2.54 1-3.85 1.56v-.22c1.26-.54 2.58-1.08 3.85-1.6ZM115.5 40.38v.26c-.706.25-1.394.548-2.06.89a18.074 18.074 0 0 0-5.651 4.312A18.074 18.074 0 0 0 104.24 52a13.093 13.093 0 0 0 .9 10.33.896.896 0 0 1-.2.14 13.58 13.58 0 0 1-.94-10.56 18.408 18.408 0 0 1 9.34-10.61 16.305 16.305 0 0 1 2.16-.92Z" fill="#4F87FD"/><path d="M120.5 84.58v.12a32.537 32.537 0 0 1-3.86 1C109.55 87 104.07 85 101 80a13.065 13.065 0 0 1-1.46-10.33 12.85 12.85 0 0 1 5.37-7.18l.22-.12v-.06c.4-.24.8-.46 1.22-.68l.12.22a12.512 12.512 0 0 0-5.24 18c3.52 5.79 10.34 7.44 19.21 4.64l.06.09Z" fill="#4F87FD"/><path d="m120.5 84.58-.05-.11h.01l.04.11ZM105.14 62.31v.06l-.22.12a.904.904 0 0 0 .22-.18Z" fill="#4F87FD"/><path d="M226.73 174.4a2.476 2.476 0 0 1-.53 2.46.994.994 0 0 1-1 .07 1.346 1.346 0 0 1-.49-.44v-.74a1.363 1.363 0 0 0 .65 1 .708.708 0 0 0 .78-.05c.22-.16.7-.7.44-2.23a23.306 23.306 0 0 0-2.41-7.28 14.363 14.363 0 0 0-2.1-3.44 7.373 7.373 0 0 1-1-1.48l-1.13-17.31.25-.09 1.13 17.36c.274.51.61.983 1 1.41a14.056 14.056 0 0 1 2.12 3.49 22.797 22.797 0 0 1 2.29 7.27Z" fill="#26417F"/><path d="M226.49 174.43c.26 1.53-.22 2.07-.44 2.23a.71.71 0 0 1-.78.05 1.367 1.367 0 0 1-.65-1 2.596 2.596 0 0 1-.05-.52c-.25-2.79-.59-5.15-.6-5.17h-.25s.35 2.37.61 5.14a2.21 2.21 0 0 0 0 .46v.07c0 .49.08 1 .11 1.5.07 1.67-.6 2.46-1.25 2.49-.55 0-1.13-.56-1.19-1.66-.19-3.71-.71-9.08-.71-9.14h-.25c0 .06.52 5.43.71 9.13 0 .55.05 1.06.06 1.51.07 1-.16 1.68-.65 2a1.128 1.128 0 0 1-1.18-.07 1.853 1.853 0 0 1-.591-.665 1.847 1.847 0 0 1-.209-.865 2.432 2.432 0 0 1 0-.27 66.834 66.834 0 0 0-.49-8.59h-.25c.349 2.833.512 5.686.49 8.54a1.765 1.765 0 0 0 0 .23 1.075 1.075 0 0 1-.52.89 1.552 1.552 0 0 1-1.49 0 .999.999 0 0 1-.55-.92c-.06-.58-1.89-9.87-2.43-9.93a.18.18 0 0 0-.16.13c-.2.61-2.64 2.7-4 3.58-.9.88-1.68.77-2.11.37a.902.902 0 0 1-.24-1.15c.43-1.07 4.36-6.44 4.4-6.5l-1.27-19a66.754 66.754 0 0 0 9.22-2.46l1.22 17.35a7.33 7.33 0 0 0 1 1.48 14.363 14.363 0 0 1 2.1 3.44 23.292 23.292 0 0 1 2.39 7.32Z" fill="#FFDFD4"/><path d="M224.73 177.25c.07 1.84-.72 2.71-1.49 2.75h-.05a1.334 1.334 0 0 1-1.14-.77c0-.35 0-.74-.05-1.14.06 1.1.64 1.66 1.19 1.66.65 0 1.32-.82 1.25-2.49 0-.5-.07-1-.11-1.5.051.261.153.509.3.73l.1.76Z" fill="#26417F"/><path d="M224.62 175.75v.74a1.981 1.981 0 0 1-.3-.73v-.53h.24a2.6 2.6 0 0 0 .06.52ZM224.56 175.2h-.24c-.26-2.77-.6-5.11-.61-5.14h.25s.35 2.35.6 5.14Z" fill="#26417F"/><path d="M224.36 175.69a2.21 2.21 0 0 1 0-.46c-.03.15-.01.3 0 .46ZM222.06 179.6c.1 1.45-.44 2-.77 2.2a1.28 1.28 0 0 1-.63.17 1.565 1.565 0 0 1-.81-.25 1.998 1.998 0 0 1-.84-1.18c.093-.174.151-.364.17-.56a1.84 1.84 0 0 0 .8 1.53 1.13 1.13 0 0 0 1.18.07c.49-.29.72-1 .65-2 0-.45 0-1-.06-1.51.011.395.114.781.3 1.13 0 .16.01.28.01.4Z" fill="#26417F"/><path d="M222 178.09c0 .4 0 .79.05 1.14a2.552 2.552 0 0 1-.3-1.13l.25-.01ZM222 178.09h-.25c-.19-3.7-.71-9.07-.71-9.13h.25c0 .04.52 5.42.71 9.13ZM211.12 122.69c11.15 6.73 10.19 21.46 10.18 21.61v.08h-.07s-.43.16-1.12.39v-.09h-.25v.16a66.754 66.754 0 0 1-9.22 2.46v-.11h-.25v.13c-.47.08-.92.14-1.34.18h-.12v-.12a64.295 64.295 0 0 1-.29-12.46h.25a64.382 64.382 0 0 0 .27 12.29c4.39-.43 11.13-2.82 11.93-3.1.06-1.18.53-14.9-10.05-21.28-5.16-2.29-9.65-2.6-13.34-.93-5.17 2.34-6.95 7.84-7 7.9a1.783 1.783 0 0 0 0 .4l-.13-.08-.12.19a4.927 4.927 0 0 1 0-.57c0-.07 1.83-5.68 7.1-8.07 3.77-1.61 8.33-1.3 13.57 1.02Z" fill="#26417F"/><path d="M211 122.92c10.58 6.38 10.11 20.1 10.05 21.28-.8.28-7.54 2.67-11.93 3.1a64.382 64.382 0 0 1-.27-12.29h-.25a64.295 64.295 0 0 0 .29 12.46v.12h.11c.42 0 .87-.1 1.34-.18l.49 7.24c-.07.07-6.7 6.08-16.8 2.57-6.51-2.26-8.56-5.7-9.19-7.87a.085.085 0 0 0 .008-.035 6.078 6.078 0 0 1-.248-1.945l9.63-11.68c.23.11.47.22.73.32h.08l3.63-4-.18-.17-3.49 3.87c-3.75-1.52-4.28-4-4.31-5.2l.1-.16-.09-.06a1.783 1.783 0 0 1 0-.4c0-.06 1.79-5.56 7-7.9 3.66-1.67 8.15-1.36 13.3.93Z" fill="#61D3BA"/><path d="M220.09 144.7v.09l-.25.09v-.16l.25-.02ZM218.7 171.12c.348 2.85.512 5.719.49 8.59h-.25a65.532 65.532 0 0 0-.49-8.54l.25-.05Z" fill="#26417F"/><path d="M219.19 179.71c-.005.09-.005.18 0 .27a1.453 1.453 0 0 1-.17.56 2.447 2.447 0 0 1-.08-.62 1.765 1.765 0 0 1 0-.23l.25.02Z" fill="#26417F"/><path d="M218.93 179.92c0 .209.027.417.08.62a1.3 1.3 0 0 1-.47.49 1.648 1.648 0 0 1-.83.21 1.795 1.795 0 0 1-.91-.24 1.267 1.267 0 0 1-.68-1.12 81.186 81.186 0 0 0-2.18-9.57 19.196 19.196 0 0 1-4 3.53c-1 1-1.93.84-2.44.37a1.143 1.143 0 0 1-.27-1.48c.46-1.1 4-6 4.39-6.5l-.76-11.31.14-.12-.16-.18-.49-7.24c.083.009.167.009.25 0l1.27 19c0 .06-4 5.43-4.4 6.5a.9.9 0 0 0 .24 1.15c.43.4 1.21.51 2.11-.37 1.33-.88 3.77-3 4-3.58a.174.174 0 0 1 .06-.09.174.174 0 0 1 .1-.04c.54.06 2.37 9.35 2.43 9.93a.996.996 0 0 0 .55.92 1.555 1.555 0 0 0 1.49 0 1.072 1.072 0 0 0 .48-.88ZM213.92 109.78c.048.351.071.706.07 1.06a8.105 8.105 0 0 1-7.05 8 9.226 9.226 0 0 1-1.05.07 8.097 8.097 0 0 1-8.023-8.875 8.098 8.098 0 0 1 1.613-4.125 8.105 8.105 0 0 1 8.521-2.866 8.098 8.098 0 0 1 5.919 6.766v-.03Zm-.65 3.7a7.847 7.847 0 0 0-.955-7.16 7.841 7.841 0 0 0-6.405-3.34 7.727 7.727 0 0 0-4.43 1.37v-.08l-.24.06s0 .07.05.17a7.9 7.9 0 0 0-1.57 1.54 7.758 7.758 0 0 0-1.47 3.18l-.2.07.08.23h.06a8.267 8.267 0 0 0 0 2.33 7.831 7.831 0 0 0 15 2c.117-.051.227-.114.33-.19l-.15-.2-.1.02Z" fill="#26417F"/><path d="M213.67 109.81a7.793 7.793 0 0 1-.4 3.67 3.644 3.644 0 0 1-2.65.34 2.018 2.018 0 0 1-.811-.387 2.014 2.014 0 0 1-.559-.703 2.284 2.284 0 0 0 1.12-2 1.857 1.857 0 0 0-1-1.6c-.296-.127-.621-.171-.94-.127-.319.044-.62.174-.87.377-4.4.67-5.94-4.32-6.12-5a7.727 7.727 0 0 1 4.43-1.37 7.837 7.837 0 0 1 7.76 6.83l.04-.03Z" fill="#13286A"/><path d="m213.3 113.46.15.2a1.664 1.664 0 0 1-.33.19 2.37 2.37 0 0 0 .15-.37l.03-.02Z" fill="#26417F"/><path d="M213.27 113.48a2.37 2.37 0 0 1-.15.37 3.911 3.911 0 0 1-1.61.33 3.347 3.347 0 0 1-.95-.12 2.243 2.243 0 0 1-1.58-1.33v-.1h.1a2.069 2.069 0 0 0 1.09-1.86 1.603 1.603 0 0 0-.84-1.39 1.52 1.52 0 0 0-1.58.24c-3.19.51-4.94-1.8-5.79-3.52a2.175 2.175 0 0 0 0-.57l-.24.05a6.813 6.813 0 0 1-.37-1l.21-.15c.18.68 1.72 5.67 6.12 5a1.773 1.773 0 0 1 1.81-.25 1.864 1.864 0 0 1 1 1.6 2.28 2.28 0 0 1-1.12 2 2.005 2.005 0 0 0 1.37 1.09 3.638 3.638 0 0 0 2.53-.39Z" fill="#26417F"/><path d="M211.51 114.18a3.911 3.911 0 0 0 1.61-.33 7.833 7.833 0 0 1-12.784 2.526 7.831 7.831 0 0 1-2.216-4.526 8.267 8.267 0 0 1 0-2.33c3-1 3.6-2.58 3.71-3.43.85 1.72 2.6 4 5.79 3.52a1.524 1.524 0 0 1 1.58-.24 1.593 1.593 0 0 1 .84 1.39 2.08 2.08 0 0 1-1.09 1.86h-.1v.1a2.25 2.25 0 0 0 1.58 1.33c.35.102.715.146 1.08.13Z" fill="#FFDFD4"/><path d="m210.87 154.62.16.18-.14.12-.02-.3ZM210.87 154.62v.3c-.1.09-.27.22-.49.39v-.07h-.25c.005.083.005.167 0 .25a17.262 17.262 0 0 1-9.82 3 19.213 19.213 0 0 1-6.34-1.11 22.176 22.176 0 0 1-3.39-1.48l-.1-.23-.24.1c-3.69-2.08-5.1-4.56-5.63-6.31h.17v-.08a.122.122 0 0 0 0-.06c.63 2.17 2.68 5.61 9.19 7.87 10.1 3.51 16.73-2.5 16.8-2.57h.1ZM210.62 147.23v.11a1.16 1.16 0 0 1-.25 0v-.13l.25.02Z" fill="#26417F"/><path d="M210.4 155.24v.07l-.26.18a2.085 2.085 0 0 0 0-.25h.26Z" fill="#26417F"/><path d="m210.14 155.49.26-.18c0 8.86-9.17 14.49-11.77 15.3L156 192.94v.06l-.07-.07-1.28-1.44-.09-.15c-2.38-2.7-7.22-8.19-10-11.4l.21-.15c2.85 3.33 8.07 9.26 11.28 12.88l42.53-22.3c2.52-.79 11.42-6.27 11.56-14.88Z" fill="#26417F"/><path d="M200.32 158.53a17.262 17.262 0 0 0 9.82-3c-.14 8.61-9 14.09-11.61 14.89L156 192.68c-3.21-3.62-8.43-9.55-11.28-12.88l-.14-.21c-1-1.14-1.65-1.94-1.81-2.19 1.33-1.27 34.84-15.87 47.84-21.48a22.176 22.176 0 0 0 3.39 1.48 19.236 19.236 0 0 0 6.32 1.13Z" fill="#E0E2E3"/><path d="M201.86 105.49c.025.189.025.381 0 .57-.09-.18-.17-.35-.24-.52l.24-.05Z" fill="#26417F"/><path d="M201.86 106.06c-.11.85-.73 2.46-3.71 3.43l.06-.28c3.81-1.29 3.42-3.58 3.4-3.68.08.18.16.35.25.53Z" fill="#26417F"/><path d="M201.61 105.54c0 .1.41 2.39-3.4 3.68a7.758 7.758 0 0 1 1.47-3.18 7.9 7.9 0 0 1 1.57-1.54c.097.342.221.677.37 1l-.01.04Z" fill="#13286A"/><path d="M201.44 104.27v.08l-.21.15c0-.1-.05-.16-.05-.17l.26-.06ZM198.68 132l-3.63 4h-.08c-.26-.1-.5-.21-.73-.32l.06-.08-.2-.16-.1.12a6.002 6.002 0 0 1-3.54-4.68l.21-.34c0 1.17.56 3.68 4.31 5.2l3.52-3.85.18.11ZM198.21 109.22l-.06.28h-.06l-.08-.23.2-.05Z" fill="#26417F"/><path d="m194.3 135.57-.06.08-.24-.12.1-.12.2.16Z" fill="#26417F"/><path d="m194.24 135.65-9.63 11.68c-.022.645.059 1.29.24 1.91a.105.105 0 0 0 0-.07.45.45 0 0 0-.26-.11 6.002 6.002 0 0 1-.19-1.8l9.6-11.73.24.12Z" fill="#26417F"/><path d="m194 135.53-9.61 11.67a6.002 6.002 0 0 0 .19 1.8 15.693 15.693 0 0 0-3.6.4c-1.82.3-4.31.71-4.55.39a.663.663 0 0 1-.05-.59c.36-.83 2.46-1.33 3.14-1.49.37-.09.41-.1.41-.22v-.1h-.07a7.322 7.322 0 0 0-2.27 0c-2.35.13-5.91.32-7.64-.31a1.522 1.522 0 0 1-1.14-1.46c0-1.29 1.44-3 3-3.49 1.56-.49 11.61-.11 11.72-.11h.07l6.91-11.23a6.008 6.008 0 0 0 3.49 4.74Z" fill="#FFDFD4"/><path d="m190.77 130.35-.1.16a1.615 1.615 0 0 1 0-.22l.1.06Z" fill="#26417F"/><path d="M190.68 130.29a1.615 1.615 0 0 0 0 .22l-.21.34c-.009-.15-.009-.3 0-.45l.12-.19.09.08ZM190.54 155.69l.1.23-.29-.15.19-.08ZM190.46 130.85l-6.91 11.23h-.07c-.11 0-10.23-.37-11.72.11-1.49.48-3 2.2-3 3.49a1.524 1.524 0 0 0 1.14 1.46c1.73.63 5.29.44 7.64.31a7.322 7.322 0 0 1 2.27 0h.07v.1c0 .12 0 .13-.41.22-.68.16-2.78.66-3.14 1.49a.668.668 0 0 0 .05.59c.24.32 2.73-.09 4.55-.39a15.693 15.693 0 0 1 3.6-.4c0 .127.04.267.12.42l-51.74 12.32 10.45 15-.22.12-.32-.47.09-.05-.12-.22-.12.07-7.59-10.88-2.59-3.71h.18l51.82-12.32a22.783 22.783 0 0 0-3.5.44c-2.78.45-4.48.7-4.8.27a.897.897 0 0 1-.07-.82c.33-.75 1.67-1.22 2.92-1.54l-1.48.08c-2.38.13-6 .33-7.74-.33a1.729 1.729 0 0 1-1.31-1.69c0-1.38 1.52-3.16 3.17-3.73 1.48-.47 10.74-.16 11.73-.13l7-11.42c.011.128.027.254.05.38ZM190.3 155.79l.29.15c-13 5.61-46.51 20.21-47.84 21.48.16.25.83 1.05 1.81 2.19l-.21.14c-1.06-1.24-1.77-2.1-1.86-2.27v-.07a2.22 2.22 0 0 1 .65-.46l.07.1.2-.15v-.07c5.98-3.37 41.48-18.7 46.89-21.04Z" fill="#26417F"/><path d="M184.85 149.24a.085.085 0 0 1 .008.035.085.085 0 0 1-.008.035c.005.02.005.04 0 .06v.08h-.17a6.61 6.61 0 0 1-.12-.42.45.45 0 0 1 .26.11.093.093 0 0 1 .029.046.099.099 0 0 1 .001.054Z" fill="#26417F"/><path d="M184.67 149.48c.53 1.75 1.94 4.23 5.63 6.31-5.41 2.34-40.91 17.67-46.94 21l-10.45-15 51.76-12.31Z" fill="#E0E2E3"/><path d="m154.6 191.48.05.07-4.06 2.58-.14-.2 4-2.58.15.13ZM154.6 191.48l-.11-.13.11.13Z" fill="#26417F"/><path d="m154.49 191.35-4 2.58-8.36-12.34 2.42-1.64c2.72 3.21 7.56 8.7 9.94 11.4Z" fill="#FFDFD4"/><path d="m150.59 194.13-.1.07-.14-.21.1-.06.14.2Z" fill="#26417F"/><path d="m150.35 194 .14.21-8.64 5.86L125 175.28l.1-.07.59-.4.12.22-.47.32 4.81 7.08 1.52 2.6.06.11.27-.14 10 14.68 8.32-5.65-8.41-12.4-2.26-1.09.25-.15 2.08 1 2.45-1.67.16.2-2.42 1.64 8.36 12.34-.18.1Z" fill="#26417F"/><path d="m141.83 181.66 8.41 12.4-8.32 5.65-9.97-14.68 7.62-4.46 2.26 1.09Z" fill="#FBC623"/><path d="m144.59 179.59.14.21-.16-.19.02-.02ZM144.72 179.8l-.21.15-.16-.2.21-.14.16.19ZM143.36 176.78v.07l-.2.15-.07-.1.27-.12ZM142.79 176.16l.12.22-.09.05-.15-.2.12-.07Z" fill="#26417F"/><path d="m142.82 176.43-2.92 1.69-.12-.21 2.89-1.68.15.2Z" fill="#26417F"/><path d="m135.08 165.35 7.59 10.88-2.89 1.68-6.55-11.18 1.89-1.11-.13-.21.09-.06Z" fill="#FFDFD4"/><path d="m139.9 178.12 1 1.68-.11.06-1 .56-.28-.13 1-.58-7.51-12.94-8.32-4.69c0-.06-3.56-5.24-5.34-4.06l-2.34 1.37 9 15.28a1.84 1.84 0 0 1-.2.14l-9.09-15.51.11-.07 2.43-1.42c1.93-1.29 5.36 3.66 5.66 4.1l8.22 4.63 1.93-1.13.13.21-1.89 1.11 6.55 11.18-.11.06.13.21.03-.06Z" fill="#26417F"/><path d="m133 166.77 7.57 12.94-1 .58-6.14-2.94c-.34-.43-4.08-5.14-5.92-3.72l-1.55 1-9-15.28 2.33-1.37c1.78-1.18 5.31 4 5.34 4.06l8.37 4.73Z" fill="#FBC623"/><path d="m139.78 177.91.12.21-.1.06-.13-.21.11-.06ZM139.82 180.42l-.25.15-.28-.13.25-.15.28.13Z" fill="#26417F"/><path d="M139.57 180.57 132 185l-1.76-2.6-4.34-7.4.21-.14 5.8 9.9 7.43-4.35.23.16Z" fill="#FBC623"/><path d="m139.54 180.29-.25.15-6.07-2.92s-3.9-5-5.6-3.69l-1.56 1.06-.13-.22 1.55-1c1.84-1.42 5.58 3.29 5.92 3.72l6.14 2.9Z" fill="#26417F"/><path d="m139.29 180.44-7.43 4.35-5.8-9.9 1.56-1.06c1.7-1.3 5.56 3.65 5.6 3.69l6.07 2.92Z" fill="#FBC623"/><path d="m130.19 182.43 1.76 2.6-.18.11-.06-.11-1.52-2.6Z" fill="#26417F"/><path d="m130.19 182.43-4.81-7.08.47-.32 4.34 7.4Z" fill="#FBC623"/><path d="m125.93 174.67.13.22-.21.14-.12-.22a1.84 1.84 0 0 0 .2-.14Z" fill="#26417F"/><path d="m129.6 89.46-1.14 12.27 10.76 7.12.84 8.96 2.73-10.31-11.15-8.07-2.04-9.97Z" fill="#E0E2E3"/><path d="M265.14 75S230.91 90.1 231 71.43c4.4-10.78 26.31-3.86 15.64 14-10.34 11.43-29.64 11.14-36.7 5.35" stroke="#FBC623" stroke-width="3" stroke-miterlimit="10"/><path d="m284.15 92.57 3.87 4.39-11.19 6.88-2.81-3.46 10.13-7.81Z" fill="#61D3BA"/><path d="m179.05 80.5 4.87 5.9-3.06 3.06-5.11-5.44 3.3-3.52Z" stroke="#FBC623" stroke-miterlimit="10"/></svg>