<svg id="visual" viewBox="0 0 1920 1080" width="1920" height="1080" xmlns="http://www.w3.org/2000/svg" xmlns:xlink="http://www.w3.org/1999/xlink" version="1.1"><rect x="0" y="0" width="1920" height="1080" fill="#ebeef1"></rect><defs><linearGradient id="grad1_0" x1="43.8%" y1="0%" x2="100%" y2="100%"><stop offset="14.444444444444446%" stop-color="#7ac0ff" stop-opacity="1"></stop><stop offset="85.55555555555554%" stop-color="#7ac0ff" stop-opacity="1"></stop></linearGradient></defs><defs><linearGradient id="grad1_1" x1="43.8%" y1="0%" x2="100%" y2="100%"><stop offset="14.444444444444446%" stop-color="#7ac0ff" stop-opacity="1"></stop><stop offset="85.55555555555554%" stop-color="#b6d7f8" stop-opacity="1"></stop></linearGradient></defs><defs><linearGradient id="grad1_2" x1="43.8%" y1="0%" x2="100%" y2="100%"><stop offset="14.444444444444446%" stop-color="#ebeef1" stop-opacity="1"></stop><stop offset="85.55555555555554%" stop-color="#b6d7f8" stop-opacity="1"></stop></linearGradient></defs><defs><linearGradient id="grad2_0" x1="0%" y1="0%" x2="56.3%" y2="100%"><stop offset="14.444444444444446%" stop-color="#7ac0ff" stop-opacity="1"></stop><stop offset="85.55555555555554%" stop-color="#7ac0ff" stop-opacity="1"></stop></linearGradient></defs><defs><linearGradient id="grad2_1" x1="0%" y1="0%" x2="56.3%" y2="100%"><stop offset="14.444444444444446%" stop-color="#b6d7f8" stop-opacity="1"></stop><stop offset="85.55555555555554%" stop-color="#7ac0ff" stop-opacity="1"></stop></linearGradient></defs><defs><linearGradient id="grad2_2" x1="0%" y1="0%" x2="56.3%" y2="100%"><stop offset="14.444444444444446%" stop-color="#b6d7f8" stop-opacity="1"></stop><stop offset="85.55555555555554%" stop-color="#ebeef1" stop-opacity="1"></stop></linearGradient></defs><g transform="translate(1920, 0)"><path d="M0 702C-54.3 701.4 -108.7 700.8 -154.4 676.6C-200.2 652.4 -237.3 604.8 -276 573C-314.6 541.3 -354.6 525.4 -406.5 509.8C-458.4 494.1 -522 478.6 -548.8 437.7C-575.6 396.8 -565.6 330.5 -582 280.3C-598.5 230.1 -641.5 196 -665.9 152C-690.3 108 -696.1 54 -702 0L0 0Z" fill="#d1e3f4"></path><path d="M0 468C-36.2 467.6 -72.5 467.2 -103 451.1C-133.5 435 -158.2 403.2 -184 382C-209.7 360.8 -236.4 350.3 -271 339.8C-305.6 329.4 -348 319.1 -365.9 291.8C-383.8 264.5 -377 220.3 -388 186.9C-399 153.4 -427.6 130.7 -443.9 101.3C-460.2 72 -464.1 36 -468 0L0 0Z" fill="#9accfc"></path><path d="M0 234C-18.1 233.8 -36.2 233.6 -51.5 225.5C-66.7 217.5 -79.1 201.6 -92 191C-104.9 180.4 -118.2 175.1 -135.5 169.9C-152.8 164.7 -174 159.5 -182.9 145.9C-191.9 132.3 -188.5 110.2 -194 93.4C-199.5 76.7 -213.8 65.3 -222 50.7C-230.1 36 -232 18 -234 0L0 0Z" fill="#7ac0ff"></path></g><g transform="translate(0, 1080)"><path d="M0 -702C46.7 -676.8 93.5 -651.5 147.3 -645.4C201.1 -639.3 262.1 -652.2 301.5 -626.2C341 -600.1 359.1 -535.2 400.3 -501.9C441.5 -468.7 505.8 -467.2 548.8 -437.7C591.9 -408.1 613.8 -350.5 611.8 -294.6C609.7 -238.7 583.7 -184.5 594.7 -135.7C605.8 -86.9 653.9 -43.5 702 0L0 0Z" fill="#d1e3f4"></path><path d="M0 -468C31.2 -451.2 62.3 -434.4 98.2 -430.3C134.1 -426.2 174.7 -434.8 201 -417.4C227.4 -400.1 239.4 -356.8 266.9 -334.6C294.3 -312.5 337.2 -311.5 365.9 -291.8C394.6 -272.1 409.2 -233.7 407.8 -196.4C406.5 -159.1 389.1 -123 396.5 -90.5C403.8 -58 435.9 -29 468 0L0 0Z" fill="#9accfc"></path><path d="M0 -234C15.6 -225.6 31.2 -217.2 49.1 -215.1C67 -213.1 87.4 -217.4 100.5 -208.7C113.7 -200 119.7 -178.4 133.4 -167.3C147.2 -156.2 168.6 -155.7 182.9 -145.9C197.3 -136 204.6 -116.8 203.9 -98.2C203.2 -79.6 194.6 -61.5 198.2 -45.2C201.9 -29 218 -14.5 234 0L0 0Z" fill="#7ac0ff"></path></g></svg>